{"glyphs":{"0":{"ha":791,"x_min":60,"x_max":731,"o":"m 60 509 q 395 1017 60 1017 q 731 509 731 1017 q 395 0 731 0 q 60 509 60 0 m 629 509 q 395 916 629 916 q 161 509 161 916 q 395 102 161 102 q 629 509 629 102 z "},"1":{"ha":646,"x_min":153,"x_max":533,"o":"m 292 795 l 153 795 l 153 859 q 317 1017 297 859 l 394 1017 l 394 102 l 533 102 l 533 0 l 153 0 l 153 102 l 292 102 l 292 795 z "},"2":{"ha":766,"x_min":74,"x_max":705,"o":"m 412 489 q 603 714 603 572 q 389 916 603 916 q 176 714 176 916 l 74 714 q 389 1017 74 1017 q 705 714 705 1017 q 446 391 705 503 l 316 335 q 176 102 176 277 l 705 102 l 705 0 l 74 0 l 74 102 q 282 433 74 345 l 412 489 z "},"3":{"ha":775,"x_min":66,"x_max":696,"o":"m 381 584 q 574 750 574 584 q 381 916 574 916 q 188 750 188 916 l 86 750 q 381 1017 86 1017 q 676 751 676 1017 q 584 536 676 602 q 696 292 696 467 q 381 0 696 0 q 66 294 66 0 l 168 294 q 381 102 168 102 q 595 294 595 102 q 381 485 595 485 l 328 485 l 328 584 l 381 584 z "},"4":{"ha":740,"x_min":27,"x_max":705,"o":"m 473 835 l 150 352 l 473 352 l 473 835 m 473 1017 l 575 1017 l 575 352 l 705 352 l 705 250 l 575 250 l 575 0 l 473 0 l 473 250 l 27 250 l 27 352 l 473 1017 z "},"5":{"ha":777,"x_min":84,"x_max":705,"o":"m 705 339 q 408 0 705 0 q 84 269 118 0 l 186 269 q 408 102 220 102 q 603 339 603 102 q 415 576 603 576 q 220 490 278 576 l 121 490 l 169 1017 l 657 1017 l 657 916 l 260 916 l 235 644 q 415 678 308 678 q 705 339 705 678 z "},"6":{"ha":734,"x_min":58,"x_max":688,"o":"m 165 389 q 373 102 194 102 q 587 322 587 102 q 373 543 587 543 q 165 389 195 543 m 373 0 q 58 509 58 0 q 407 1017 58 1017 q 688 779 688 1017 l 587 779 q 407 916 587 916 q 162 586 184 916 q 373 644 239 644 q 688 322 688 644 q 373 0 688 0 z "},"7":{"ha":748,"x_min":67,"x_max":698,"o":"m 698 916 l 336 0 l 227 0 l 589 916 l 67 916 l 67 1017 l 698 1017 l 698 916 z "},"8":{"ha":731,"x_min":50,"x_max":681,"o":"m 366 916 q 172 746 172 916 q 366 576 172 576 q 559 746 559 576 q 366 916 559 916 m 366 475 q 152 288 152 475 q 366 102 152 102 q 579 288 579 102 q 366 475 579 475 m 161 529 q 71 746 71 595 q 366 1017 71 1017 q 661 746 661 1017 q 570 529 661 595 q 681 288 681 459 q 366 0 681 0 q 50 288 50 0 q 161 529 50 459 z "},"9":{"ha":734,"x_min":45,"x_max":676,"o":"m 569 629 q 361 916 540 916 q 147 695 147 916 q 361 475 147 475 q 569 629 539 475 m 361 1017 q 676 509 676 1017 q 327 0 676 0 q 45 239 45 0 l 147 239 q 327 102 147 102 q 572 431 549 102 q 361 373 495 373 q 45 695 45 373 q 361 1017 45 1017 z "}," ":{"ha":386,"x_min":0,"x_max":0,"o":""},"!":{"ha":591,"x_min":305,"x_max":422,"o":"m 415 1013 l 415 543 l 388 233 l 340 233 l 313 543 l 313 1013 l 415 1013 m 422 144 l 422 0 l 305 0 l 305 144 l 422 144 z "},"\"":{"ha":493,"x_min":72,"x_max":423,"o":"m 72 985 l 201 985 l 201 831 l 163 644 l 109 644 l 72 831 l 72 985 m 294 985 l 423 985 l 423 831 l 386 644 l 332 644 l 294 831 l 294 985 z "},"#":{"ha":772,"x_min":19,"x_max":752,"o":"m 673 968 l 623 696 l 752 696 l 752 602 l 605 602 l 562 359 l 708 359 l 708 265 l 545 265 l 491 -27 l 386 -27 l 438 265 l 267 265 l 212 -27 l 106 -27 l 159 265 l 19 265 l 19 359 l 177 359 l 220 602 l 71 602 l 71 696 l 239 696 l 288 968 l 394 968 l 344 696 l 517 696 l 566 968 l 673 968 m 500 602 l 328 602 l 283 359 l 456 359 l 500 602 z "},"$":{"ha":772,"x_min":47,"x_max":722,"o":"m 340 1069 l 422 1069 l 422 994 q 662 852 597 982 q 691 734 688 800 l 691 721 l 582 721 q 501 875 581 828 q 440 896 473 890 q 422 897 431 897 l 422 551 q 604 485 561 509 q 722 271 722 418 q 627 41 722 126 q 594 17 612 28 q 422 -32 526 -23 l 422 -175 l 340 -175 l 340 -32 q 66 144 126 -18 q 47 264 47 199 q 48 289 47 277 l 158 289 q 187 153 168 186 q 193 143 190 149 q 340 64 241 77 l 340 441 q 165 514 211 481 q 66 717 66 585 q 260 978 66 920 q 340 994 297 989 l 340 1069 m 340 562 l 340 896 q 183 772 207 878 q 179 730 179 753 q 340 562 179 606 m 422 429 l 422 64 q 549 115 507 74 q 608 254 608 171 q 543 380 608 339 q 422 429 503 406 z "},"%":{"ha":1234,"x_min":40,"x_max":1193,"o":"m 276 951 q 464 860 393 951 l 489 821 q 513 711 513 770 q 426 530 513 602 q 277 476 361 476 q 93 564 165 476 q 40 714 40 631 q 127 899 40 827 q 276 951 193 951 m 276 854 q 159 790 201 854 l 143 758 q 136 714 136 736 q 198 597 136 640 q 277 574 235 574 q 394 636 353 574 q 418 713 418 671 q 351 833 418 791 q 276 854 318 854 m 846 985 l 937 985 l 389 -27 l 297 -27 l 846 985 m 956 447 q 1144 355 1074 447 q 1193 208 1193 292 q 1105 28 1193 98 q 957 -26 1040 -26 q 772 61 844 -26 q 719 211 719 127 q 808 395 719 323 q 956 447 873 447 m 956 350 q 839 288 880 350 q 815 211 815 253 q 880 93 815 135 q 957 71 915 71 q 1074 134 1031 71 q 1097 208 1097 168 q 1030 329 1097 288 l 998 343 q 956 350 977 350 z "},"&":{"ha":926,"x_min":72,"x_max":884,"o":"m 684 464 l 795 464 q 715 210 795 334 l 884 0 l 733 0 l 647 109 q 540 18 579 41 q 357 -32 462 -32 q 118 82 195 -32 q 72 244 72 150 q 144 431 72 357 q 297 541 194 481 q 187 729 199 663 q 184 766 184 747 q 275 939 184 873 q 422 985 338 985 q 611 893 547 985 l 631 854 q 647 791 644 825 q 648 766 648 779 q 572 603 648 671 q 456 525 532 567 l 642 298 q 684 458 684 374 l 684 464 m 395 599 q 529 721 508 669 q 538 770 538 742 q 476 873 538 842 q 418 888 450 888 q 307 818 334 888 q 298 768 298 796 q 333 673 298 722 l 395 599 m 581 191 l 358 468 q 199 315 227 385 q 189 254 189 288 q 264 111 189 164 q 370 77 312 77 q 558 167 464 77 q 581 191 569 178 z "},"'":{"ha":265,"x_min":66,"x_max":197,"o":"m 66 985 l 197 985 l 197 831 l 159 644 l 104 644 l 66 831 l 66 985 z "},"(":{"ha":777,"x_min":170,"x_max":472,"o":"m 396 1013 l 472 1013 q 283 416 300 734 q 282 359 282 387 q 452 -259 282 36 q 472 -294 461 -277 l 396 -294 q 188 178 239 -89 q 170 359 170 272 q 298 857 170 608 q 396 1013 342 942 z "},")":{"ha":777,"x_min":305,"x_max":608,"o":"m 382 -294 l 305 -294 q 494 301 477 -16 q 496 358 496 330 q 326 978 496 682 q 305 1013 316 996 l 382 1013 q 590 541 538 807 q 608 358 608 446 q 479 -138 608 110 q 382 -294 436 -223 z "},"*":{"ha":896,"x_min":305,"x_max":726,"o":"m 472 1013 l 559 1013 l 553 857 l 700 909 l 726 828 l 576 786 l 673 663 l 602 612 l 516 742 l 429 612 l 359 663 l 455 786 l 305 828 l 332 909 l 479 857 l 472 1013 z "},"+":{"ha":811,"x_min":69,"x_max":741,"o":"m 741 371 l 741 273 l 454 273 l 454 -14 l 357 -14 l 357 273 l 69 273 l 69 371 l 357 371 l 357 659 l 454 659 l 454 371 l 741 371 z "},",":{"ha":386,"x_min":121,"x_max":267,"o":"m 121 144 l 267 144 l 267 -22 q 121 -204 267 -204 l 121 -151 q 195 -105 180 -149 q 204 -24 204 -79 l 204 0 l 121 0 l 121 144 z "},"-":{"ha":462,"x_min":64,"x_max":394,"o":"m 394 433 l 394 334 l 64 334 l 64 433 l 394 433 z "},".":{"ha":386,"x_min":121,"x_max":265,"o":"m 265 144 l 265 0 l 121 0 l 121 144 l 265 144 z "},"/":{"ha":386,"x_min":-11,"x_max":395,"o":"m 318 1013 l 395 1013 l 66 -27 l -11 -27 l 318 1013 z "},":":{"ha":386,"x_min":153,"x_max":297,"o":"m 297 144 l 297 0 l 153 0 l 153 144 l 297 144 m 297 728 l 297 583 l 153 583 l 153 728 l 297 728 z "},";":{"ha":386,"x_min":153,"x_max":298,"o":"m 298 728 l 298 583 l 154 583 l 154 728 l 298 728 m 153 144 l 298 144 l 298 -22 q 153 -204 298 -204 l 153 -151 q 227 -105 212 -149 q 236 -24 236 -79 l 236 0 l 153 0 l 153 144 z "},"<":{"ha":811,"x_min":62,"x_max":741,"o":"m 62 275 l 62 371 l 741 659 l 741 549 l 195 325 l 741 97 l 741 -12 l 62 275 z "},"=":{"ha":811,"x_min":69,"x_max":741,"o":"m 741 490 l 741 393 l 69 393 l 69 490 l 741 490 m 741 252 l 741 154 l 69 154 l 69 252 l 741 252 z "},">":{"ha":811,"x_min":69,"x_max":748,"o":"m 748 371 l 748 275 l 69 -12 l 69 97 l 616 321 l 69 549 l 69 659 l 748 371 z "},"?":{"ha":1075,"x_min":305,"x_max":905,"o":"m 656 277 l 532 277 l 532 353 q 570 473 532 422 q 643 550 594 504 q 676 579 652 558 q 780 762 779 671 q 695 901 780 860 l 652 916 q 602 921 629 921 q 447 840 488 921 q 423 704 423 793 l 305 704 q 368 931 305 850 q 555 1026 431 1012 q 610 1029 582 1029 q 862 914 785 1029 l 884 872 q 905 762 905 822 q 834 583 905 665 q 766 514 808 551 q 665 396 679 433 q 656 342 656 375 l 656 277 m 656 144 l 656 0 l 532 0 l 532 144 l 656 144 z "},"@":{"ha":1409,"x_min":47,"x_max":1320,"o":"m 923 696 l 1038 696 l 913 307 q 897 237 897 258 q 937 182 897 200 q 966 176 951 176 q 1128 277 1055 176 q 1200 496 1200 375 q 1065 786 1200 663 q 732 922 927 914 l 711 922 q 349 781 507 922 l 302 733 q 165 379 165 576 q 311 49 165 183 q 686 -90 460 -90 q 954 -45 795 -90 l 993 -138 q 679 -197 837 -197 q 247 -48 429 -197 q 51 294 77 90 q 47 358 47 326 q 179 753 47 572 q 267 850 218 807 q 626 1021 416 986 q 729 1029 677 1029 q 1130 889 960 1029 q 1316 571 1291 758 q 1320 513 1320 542 q 1201 203 1320 345 q 943 79 1095 79 q 790 186 809 79 q 593 86 699 86 q 414 182 479 86 q 366 340 366 250 q 476 608 366 492 q 723 725 583 724 q 892 604 840 725 l 923 696 m 715 636 q 554 538 623 636 q 491 339 491 450 q 557 199 491 245 q 629 175 590 175 q 770 265 709 175 q 838 449 817 332 q 846 503 844 479 l 846 512 q 789 616 846 581 q 715 636 755 636 z "},"ក":{"ha":949,"x_min":68,"x_max":882,"o":"m 136 610 q 475 746 203 746 q 814 610 746 746 l 814 0 l 692 0 l 692 583 q 475 665 651 665 q 258 583 298 665 l 258 0 l 136 0 l 136 610 m 193 698 q 103 738 138 705 q 68 818 68 771 q 227 1017 68 865 q 493 899 369 1017 q 653 1017 621 1017 q 779 956 711 1017 q 850 916 821 916 q 882 930 868 916 q 859 835 882 873 q 798 796 836 796 q 629 897 759 796 l 628 897 q 448 777 581 897 q 324 871 374 847 q 227 898 274 895 l 159 834 q 246 724 171 762 l 193 698 z "},"ខ":{"ha":949,"x_min":136,"x_max":814,"o":"m 258 695 l 258 644 q 296 678 296 644 q 258 695 296 695 m 814 203 q 475 0 814 0 q 136 203 136 0 l 136 385 q 692 712 692 597 l 692 814 q 475 936 692 936 q 258 814 258 936 l 258 763 q 338 742 313 763 q 363 678 363 720 q 250 576 363 576 q 136 644 136 576 l 136 814 q 475 1017 136 1017 q 814 814 814 1017 l 814 712 q 258 345 814 549 l 258 203 q 475 81 258 81 q 692 203 692 81 l 692 407 l 814 407 l 814 203 z "},"គ":{"ha":949,"x_min":68,"x_max":882,"o":"m 193 698 q 103 738 138 705 q 68 818 68 771 q 227 1017 68 865 q 493 899 369 1017 q 653 1017 621 1017 q 779 956 711 1017 q 850 916 821 916 q 882 930 868 916 q 859 835 882 873 q 798 796 836 796 q 629 897 759 796 l 628 897 q 448 777 581 897 q 324 871 374 847 q 227 898 274 895 l 159 834 q 246 724 171 762 l 193 698 m 258 183 q 449 339 338 339 q 543 258 543 339 q 490 203 543 203 q 452 226 452 203 q 422 248 452 248 q 258 25 373 248 l 258 0 l 136 0 l 136 610 q 475 746 203 746 q 814 610 746 746 l 814 0 l 692 0 l 692 583 q 475 665 651 665 q 258 583 298 665 l 258 183 z "},"ឃ":{"ha":1424,"x_min":14,"x_max":1390,"o":"m 136 916 q 81 814 81 902 q 136 746 81 746 l 136 916 m 1166 653 q 1031 767 1166 725 q 1096 926 1044 836 q 1183 1017 1147 1017 q 1261 988 1213 1017 l 1309 959 q 1358 946 1330 946 q 1390 949 1373 946 q 1363 872 1383 902 q 1308 838 1342 842 q 1301 838 1304 838 q 1209 873 1267 838 q 1177 884 1192 884 q 1103 806 1134 884 q 1289 692 1289 746 l 1289 136 q 970 0 1221 0 q 712 64 798 0 q 454 0 626 0 q 136 136 203 0 l 136 678 q 14 814 14 678 q 58 960 14 902 q 156 1017 102 1017 q 258 949 258 1017 l 258 163 q 454 81 298 81 q 651 163 610 81 l 651 653 q 515 767 651 725 q 580 926 529 836 q 668 1017 631 1017 q 746 988 698 1017 l 793 959 q 843 946 814 946 q 875 949 858 946 q 847 872 868 902 q 792 838 827 842 q 785 838 789 838 q 694 873 751 838 q 661 884 676 884 q 587 806 618 884 q 773 692 773 746 l 773 163 q 970 81 814 81 q 1166 163 1126 81 l 1166 653 z "},"ង":{"ha":949,"x_min":34,"x_max":814,"o":"m 658 895 q 624 936 658 936 q 576 895 576 936 q 633 835 576 872 q 658 895 658 863 m 136 536 q 102 481 102 536 q 136 441 102 441 l 136 536 m 136 373 q 34 481 34 373 q 136 610 34 610 q 258 543 258 610 l 258 108 l 418 268 q 475 297 446 297 q 533 268 504 297 l 692 109 l 692 610 q 673 703 692 684 q 629 739 654 722 q 414 678 533 678 q 196 725 252 678 q 136 854 136 776 q 153 944 136 899 q 170 1038 170 990 q 102 1085 170 1085 q 170 1153 102 1153 q 292 1038 292 1153 q 275 941 292 980 q 258 854 258 902 q 295 787 258 814 q 414 760 332 760 q 566 784 498 760 q 495 895 495 844 q 624 1017 495 1017 q 746 895 746 1017 q 700 795 746 843 q 729 780 714 787 q 814 610 814 734 l 814 68 q 746 0 814 0 q 633 52 685 0 l 475 210 l 317 52 q 203 0 265 0 q 136 68 136 0 l 136 373 z "},"ច":{"ha":949,"x_min":68,"x_max":882,"o":"m 692 604 q 644 549 644 604 q 692 509 644 509 l 692 604 m 692 441 q 576 549 576 441 q 692 678 576 678 q 814 610 814 678 l 814 136 q 475 0 746 0 q 136 136 203 0 l 136 715 q 103 739 117 724 q 68 818 68 771 q 227 1017 68 865 q 493 899 369 1017 q 653 1017 621 1017 q 779 956 711 1017 q 850 916 821 916 q 882 930 868 916 q 859 835 882 873 q 798 796 836 796 q 629 897 759 796 l 628 897 q 448 777 581 897 q 324 871 374 847 q 227 898 274 895 l 159 834 q 258 720 171 762 l 258 163 q 475 81 298 81 q 692 163 651 81 l 692 441 z "},"ឆ":{"ha":949,"x_min":34,"x_max":882,"o":"m 136 258 q 102 203 102 244 q 136 102 102 102 l 136 258 m 692 604 q 644 549 644 604 q 692 509 644 509 l 692 604 m 136 715 q 103 739 117 724 q 68 818 68 771 q 227 1017 68 865 q 493 899 369 1017 q 653 1017 621 1017 q 779 956 711 1017 q 850 916 821 916 q 882 930 868 916 q 859 835 882 873 q 798 796 836 796 q 629 897 759 796 l 628 897 q 448 777 581 897 q 324 871 374 847 q 227 898 274 895 l 159 834 q 258 720 171 762 l 258 339 q 509 170 509 339 q 600 81 509 81 q 692 170 692 81 l 692 441 q 576 549 576 441 q 692 678 576 678 q 814 610 814 678 l 814 170 q 600 0 814 0 q 407 170 407 0 q 258 258 407 258 l 258 68 q 170 0 258 0 q 68 64 102 0 q 34 203 34 129 q 136 339 34 319 l 136 715 z "},"ជ":{"ha":949,"x_min":68,"x_max":814,"o":"m 136 685 q 78 747 87 730 q 68 790 68 764 q 78 833 68 815 q 166 934 87 850 q 271 1017 245 1017 q 400 945 295 1017 q 604 848 538 848 q 732 943 732 848 q 699 1004 732 977 q 604 1031 665 1031 q 515 1092 515 1031 q 604 1153 515 1153 q 756 1099 699 1153 q 814 943 814 1044 q 759 805 814 846 q 597 764 705 764 q 352 823 436 764 l 310 852 q 248 878 272 878 q 242 878 245 878 q 192 844 216 874 q 169 792 169 814 q 258 706 169 769 l 258 108 l 418 268 q 475 297 446 297 q 533 268 504 297 l 692 109 l 692 678 l 814 678 l 814 68 q 746 0 814 0 q 633 52 685 0 l 475 210 l 317 52 q 203 0 265 0 q 136 68 136 0 l 136 685 z "},"ឈ":{"ha":1899,"x_min":136,"x_max":1865,"o":"m 258 102 q 339 271 339 102 q 258 339 339 339 l 258 102 m 637 854 q 448 936 597 936 q 258 854 298 936 l 258 407 q 407 271 407 407 q 365 68 407 136 q 237 0 322 0 q 136 68 136 0 l 136 882 q 448 1017 203 1017 q 760 882 692 1017 l 760 163 q 949 81 800 81 q 1139 163 1099 81 l 1139 653 q 1004 767 1139 725 q 1068 926 1017 836 q 1156 1017 1120 1017 q 1234 988 1186 1017 l 1282 959 q 1331 946 1303 946 q 1363 949 1346 946 q 1336 872 1356 902 q 1280 838 1315 842 q 1274 838 1277 838 q 1182 873 1240 838 q 1149 884 1164 884 q 1076 806 1107 884 q 1261 692 1261 746 l 1261 163 q 1451 81 1302 81 q 1641 163 1600 81 l 1641 653 q 1506 767 1641 725 q 1570 926 1519 836 q 1658 1017 1622 1017 q 1736 988 1688 1017 l 1784 959 q 1833 946 1805 946 q 1865 949 1848 946 q 1837 872 1858 902 q 1782 838 1817 842 q 1775 838 1779 838 q 1684 873 1742 838 q 1651 884 1666 884 q 1577 806 1609 884 q 1763 692 1763 746 l 1763 136 q 1451 0 1695 0 q 1200 63 1285 0 q 949 0 1116 0 q 637 136 705 0 l 637 854 z "},"ញ":{"ha":1424,"x_min":136,"x_max":1289,"o":"m 258 102 q 339 271 339 102 q 258 339 339 339 l 258 102 m 1088 -136 q 1109 -85 1088 -102 q 1173 -68 1130 -68 q 1259 -102 1230 -68 q 1289 -203 1289 -136 q 1217 -332 1289 -278 q 994 -387 1145 -387 q 829 -361 902 -387 q 606 -242 757 -336 q 375 -149 454 -149 q 267 -168 313 -149 q 170 -231 220 -186 q 195 -158 170 -190 q 277 -97 220 -125 q 409 -68 334 -68 q 593 -100 517 -68 q 760 -197 670 -132 q 1007 -316 931 -316 q 1127 -294 1088 -316 q 1166 -203 1166 -271 l 1166 -185 q 1138 -187 1150 -187 q 1115 -183 1122 -187 q 1095 -163 1102 -176 q 1088 -136 1088 -150 m 692 814 q 645 910 692 884 q 626 914 636 914 q 475 814 576 914 q 323 914 374 914 q 305 910 313 914 q 258 814 258 884 l 258 407 q 407 271 407 407 q 365 68 407 136 q 237 0 322 0 q 136 68 136 0 l 136 814 q 210 957 136 897 q 325 1017 285 1017 q 475 926 359 1017 q 625 1017 591 1017 q 739 957 665 1017 q 759 939 750 948 q 990 1017 833 1017 q 1289 733 1289 1017 l 1289 0 l 1166 0 l 1166 733 q 990 936 1166 936 q 814 733 814 936 l 814 0 l 692 0 l 692 814 z "},"ដ":{"ha":949,"x_min":136,"x_max":814,"o":"m 243 891 q 262 857 243 871 l 279 857 q 315 891 315 857 q 307 916 315 907 q 279 925 297 925 q 252 916 261 925 q 243 891 243 908 m 363 828 q 404 825 382 826 q 498 823 433 823 q 637 852 582 823 q 692 947 692 882 q 597 1031 692 1031 q 529 1092 529 1031 q 597 1153 529 1153 q 814 947 814 1153 q 728 803 814 860 q 396 746 642 746 q 201 780 266 746 q 136 888 136 814 q 171 981 136 945 q 268 1017 207 1017 q 364 988 330 1017 q 399 908 399 959 q 363 828 399 857 m 258 678 l 258 108 l 418 268 q 475 297 446 297 q 533 268 504 297 l 692 109 l 692 678 l 814 678 l 814 68 q 746 0 814 0 q 633 52 685 0 l 475 210 l 317 52 q 203 0 265 0 q 136 68 136 0 l 136 678 l 258 678 z "},"ឋ":{"ha":949,"x_min":14,"x_max":916,"o":"m 136 916 q 81 814 81 902 q 136 746 81 746 l 136 916 m 136 678 q 14 814 14 678 q 58 960 14 902 q 156 1017 102 1017 q 258 949 258 1017 l 258 163 q 475 81 298 81 q 692 163 651 81 l 692 653 q 556 767 692 725 q 621 926 570 836 q 709 1017 672 1017 q 787 988 739 1017 l 827 964 q 848 1017 848 987 q 787 1099 848 1099 q 712 1160 712 1099 q 787 1221 712 1221 q 916 1017 916 1221 q 890 890 916 939 q 833 838 865 842 q 826 838 829 838 q 734 873 791 838 q 702 884 717 884 q 628 806 659 884 q 814 692 814 746 l 814 136 q 475 0 746 0 q 136 136 203 0 l 136 678 z "},"ឌ":{"ha":949,"x_min":136,"x_max":814,"o":"m 258 695 l 258 644 q 296 678 296 644 q 258 695 296 695 m 692 0 l 692 96 q 400 0 542 0 q 136 203 136 0 l 136 398 q 692 712 692 563 l 692 814 q 645 910 692 884 q 626 914 636 914 q 475 814 576 914 q 323 914 374 914 q 305 910 313 914 q 258 814 258 884 l 258 763 q 338 742 313 763 q 363 678 363 720 q 263 576 363 576 q 136 644 136 576 l 136 814 q 210 957 136 897 q 325 1017 285 1017 q 475 926 359 1017 q 625 1017 591 1017 q 740 957 665 1017 q 814 814 814 897 l 814 712 q 258 345 814 536 l 258 203 q 400 81 258 81 q 692 223 515 81 l 692 407 l 814 407 l 814 0 q 678 -115 814 -115 q 610 -47 610 -115 q 692 0 692 -47 z "},"ឍ":{"ha":1424,"x_min":136,"x_max":1390,"o":"m 258 102 q 339 271 339 102 q 258 339 339 339 l 258 102 m 692 258 q 658 203 658 244 q 692 102 658 102 l 692 258 m 1289 170 q 1092 0 1289 0 q 916 170 916 0 q 814 258 916 258 l 814 68 q 726 0 814 0 q 624 64 658 0 q 590 203 590 129 q 692 339 590 319 l 692 814 q 645 910 692 884 q 626 914 636 914 q 475 814 576 914 q 323 914 374 914 q 305 910 313 914 q 258 814 258 884 l 258 407 q 407 271 407 407 q 365 68 407 136 q 237 0 322 0 q 136 68 136 0 l 136 814 q 210 957 136 897 q 325 1017 285 1017 q 475 926 359 1017 q 625 1017 591 1017 q 739 957 665 1017 q 814 814 814 897 l 814 339 q 1017 170 1017 339 q 1092 81 1017 81 q 1166 170 1166 81 l 1166 653 q 1031 767 1166 725 q 1096 926 1044 836 q 1183 1017 1147 1017 q 1261 988 1213 1017 l 1309 959 q 1358 946 1330 946 q 1390 949 1373 946 q 1363 872 1383 902 q 1308 838 1342 842 q 1301 838 1304 838 q 1209 873 1267 838 q 1177 884 1192 884 q 1103 806 1134 884 q 1289 692 1289 746 l 1289 170 z "},"ណ":{"ha":1899,"x_min":136,"x_max":1763,"o":"m 258 102 q 339 271 339 102 q 258 339 339 339 l 258 102 m 258 407 q 407 271 407 407 q 365 68 407 136 q 237 0 322 0 q 136 68 136 0 l 136 882 q 448 1017 203 1017 q 760 882 692 1017 l 760 108 l 922 271 q 949 285 936 285 q 977 271 963 285 l 1139 109 l 1139 882 q 1451 1017 1207 1017 q 1763 882 1695 1017 l 1763 0 l 1641 0 l 1641 854 q 1451 936 1600 936 q 1261 854 1302 936 l 1261 68 q 1194 0 1261 0 q 1080 52 1133 0 l 949 183 l 819 52 q 705 0 767 0 q 637 68 637 0 l 637 854 q 448 936 597 936 q 258 854 298 936 l 258 407 z "},"ត":{"ha":949,"x_min":68,"x_max":882,"o":"m 258 102 q 326 203 326 102 q 258 271 326 271 l 258 102 m 103 738 q 85 755 103 738 q 68 818 68 771 q 227 1017 68 865 q 493 899 369 1017 q 653 1017 621 1017 q 779 956 711 1017 q 850 916 821 916 q 882 930 868 916 q 859 835 882 873 q 798 796 836 796 q 629 897 759 796 l 628 897 q 448 777 581 897 q 324 871 374 847 q 227 898 274 895 l 159 834 q 246 724 171 762 l 193 698 q 103 738 138 705 m 258 339 q 393 203 393 339 q 358 68 393 136 q 237 0 322 0 q 136 68 136 0 l 136 610 q 475 746 203 746 q 814 610 746 746 l 814 0 l 692 0 l 692 583 q 475 665 651 665 q 258 583 298 665 l 258 339 z "},"ថ":{"ha":949,"x_min":68,"x_max":814,"o":"m 692 604 q 644 549 644 604 q 692 509 644 509 l 692 604 m 136 685 q 78 747 87 730 q 68 790 68 764 q 78 833 68 815 q 166 934 87 850 q 271 1017 245 1017 q 400 945 295 1017 q 604 848 538 848 q 732 943 732 848 q 699 1004 732 977 q 604 1031 665 1031 q 515 1092 515 1031 q 604 1153 515 1153 q 756 1099 699 1153 q 814 943 814 1044 q 759 805 814 846 q 597 764 705 764 q 352 823 436 764 l 310 852 q 248 878 272 878 q 242 878 245 878 q 192 844 216 874 q 169 792 169 814 q 258 706 169 769 l 258 163 q 475 81 298 81 q 692 163 651 81 l 692 441 q 576 549 576 441 q 692 678 576 678 q 814 610 814 678 l 814 136 q 475 0 746 0 q 136 136 203 0 l 136 685 z "},"ទ":{"ha":949,"x_min":136,"x_max":814,"o":"m 654 732 q 692 712 654 712 l 692 749 q 654 732 654 749 m 712 475 q 746 492 746 475 q 729 509 746 509 q 712 475 712 509 m 712 205 q 469 0 712 0 q 203 170 203 0 l 203 339 l 326 339 l 326 170 q 469 81 326 81 q 590 204 590 81 l 590 393 l 475 393 q 136 597 136 393 l 136 814 q 475 1017 136 1017 q 814 814 814 1017 l 814 712 q 700 644 814 644 q 586 732 586 644 q 611 796 586 774 q 692 817 636 817 q 475 936 692 936 q 258 814 258 936 l 258 597 q 475 475 258 475 l 590 475 q 729 576 590 576 q 814 492 814 576 q 712 393 814 393 l 712 205 z "},"ធ":{"ha":949,"x_min":68,"x_max":882,"o":"m 692 604 q 644 549 644 604 q 692 509 644 509 l 692 604 m 136 715 q 103 739 117 724 q 68 818 68 771 q 227 1017 68 865 q 493 899 369 1017 q 653 1017 621 1017 q 779 956 711 1017 q 850 916 821 916 q 882 930 868 916 q 859 835 882 873 q 798 796 836 796 q 629 897 759 796 l 628 897 q 448 777 581 897 q 324 871 374 847 q 227 898 274 895 l 159 834 q 258 720 171 762 l 258 108 l 418 268 q 475 297 446 297 q 533 268 504 297 l 692 109 l 692 441 q 576 549 576 441 q 692 678 576 678 q 814 610 814 678 l 814 68 q 746 0 814 0 q 633 52 685 0 l 475 210 l 317 52 q 203 0 265 0 q 136 68 136 0 l 136 715 z "},"ន":{"ha":949,"x_min":136,"x_max":814,"o":"m 654 678 q 692 644 654 644 l 692 695 q 654 678 654 695 m 814 170 q 614 0 814 0 q 444 95 518 0 q 258 190 370 190 l 258 0 l 136 0 l 136 407 l 258 407 l 258 271 q 471 186 390 271 q 614 102 552 102 q 692 170 692 102 l 692 372 l 414 454 q 136 712 136 536 l 136 814 q 475 1017 136 1017 q 814 814 814 1017 l 814 644 q 700 576 814 576 q 586 678 586 576 q 611 742 586 720 q 692 763 636 763 l 692 814 q 475 936 692 936 q 258 814 258 936 l 258 712 q 536 491 258 570 l 814 412 l 814 170 z "},"ប":{"ha":949,"x_min":0,"x_max":916,"o":"m 692 653 q 556 767 692 725 q 621 926 570 836 q 709 1017 672 1017 q 787 988 739 1017 l 834 959 q 884 946 855 946 q 916 949 899 946 q 888 872 909 902 q 833 838 867 842 q 826 838 829 838 q 734 873 792 838 q 702 884 717 884 q 628 806 659 884 q 814 692 814 746 l 814 136 q 475 0 746 0 q 136 136 203 0 l 136 653 q 0 767 136 725 q 65 926 14 836 q 153 1017 116 1017 q 231 988 182 1017 l 278 959 q 328 946 299 946 q 359 949 342 946 q 332 872 353 902 q 277 838 311 842 q 270 838 273 838 q 178 873 236 838 q 146 884 161 884 q 72 806 103 884 q 258 692 258 746 l 258 163 q 475 81 298 81 q 692 163 651 81 l 692 653 z "},"ផ":{"ha":949,"x_min":68,"x_max":814,"o":"m 692 604 q 644 549 644 604 q 692 509 644 509 l 692 604 m 814 68 q 746 0 814 0 q 633 52 685 0 l 475 210 l 317 52 q 203 0 265 0 q 136 68 136 0 l 136 685 q 78 747 87 730 q 68 790 68 764 q 78 833 68 815 q 166 934 87 850 q 271 1017 245 1017 q 400 945 295 1017 q 604 848 538 848 q 732 943 732 848 q 699 1004 732 977 q 604 1031 665 1031 q 515 1092 515 1031 q 604 1153 515 1153 q 756 1099 699 1153 q 814 943 814 1044 q 759 805 814 846 q 597 764 705 764 q 352 823 436 764 l 310 852 q 248 878 272 878 q 242 878 245 878 q 192 844 216 874 q 169 792 169 814 q 258 706 169 769 l 258 108 l 418 268 q 475 297 446 297 q 533 268 504 297 l 692 109 l 692 441 q 576 549 576 441 q 692 678 576 678 q 814 610 814 678 l 814 68 z "},"ព":{"ha":949,"x_min":136,"x_max":814,"o":"m 258 102 q 339 271 339 102 q 258 339 339 339 l 258 102 m 136 814 q 210 957 136 897 q 325 1017 285 1017 q 475 926 359 1017 q 625 1017 591 1017 q 739 957 665 1017 q 814 814 814 897 l 814 0 l 692 0 l 692 814 q 645 910 692 884 q 626 914 636 914 q 475 814 576 914 q 323 914 374 914 q 305 910 313 914 q 258 814 258 884 l 258 407 q 407 271 407 407 q 365 68 407 136 q 237 0 322 0 q 136 68 136 0 l 136 814 z "},"ភ":{"ha":949,"x_min":14,"x_max":882,"o":"m 136 271 q 81 203 81 271 q 136 102 81 102 l 136 271 m 68 818 q 227 1017 68 865 q 493 899 369 1017 q 653 1017 621 1017 q 779 956 711 1017 q 850 916 821 916 q 882 930 868 916 q 859 835 882 873 q 798 796 836 796 q 629 897 759 796 l 628 897 q 448 777 581 897 q 324 871 374 847 q 227 898 274 895 l 159 834 q 246 724 171 762 l 193 698 q 103 738 138 705 q 68 818 68 771 m 136 610 q 475 746 203 746 q 814 610 746 746 l 814 0 l 692 0 l 692 583 q 475 665 651 665 q 258 583 298 665 l 258 68 q 156 0 258 0 q 49 68 85 0 q 14 203 14 136 q 136 339 14 339 l 136 610 z "},"ម":{"ha":949,"x_min":0,"x_max":916,"o":"m 692 529 l 692 653 q 556 767 692 725 q 621 926 570 836 q 709 1017 672 1017 q 787 988 739 1017 l 834 959 q 884 946 855 946 q 916 949 899 946 q 888 872 909 902 q 833 838 867 842 q 826 838 829 838 q 734 873 792 838 q 702 884 717 884 q 628 806 659 884 q 814 692 814 746 l 814 136 q 475 0 746 0 q 136 136 203 0 l 136 653 q 0 767 136 725 q 65 926 14 836 q 153 1017 116 1017 q 231 988 182 1017 l 278 959 q 328 946 299 946 q 359 949 342 946 q 332 872 353 902 q 277 838 311 842 q 270 838 273 838 q 178 873 236 838 q 146 884 161 884 q 72 806 103 884 q 258 692 258 746 l 258 529 l 692 529 m 692 448 l 258 448 l 258 163 q 475 81 298 81 q 692 163 651 81 l 692 448 z "},"យ":{"ha":1424,"x_min":136,"x_max":1390,"o":"m 258 746 q 312 814 312 746 q 258 916 312 902 l 258 746 m 136 949 q 237 1017 136 1017 q 336 960 292 1017 q 380 814 380 902 q 258 678 380 678 l 258 163 q 454 81 298 81 q 651 163 610 81 l 651 653 q 515 767 651 725 q 580 926 529 836 q 668 1017 631 1017 q 746 988 698 1017 l 793 959 q 843 946 814 946 q 875 949 858 946 q 847 872 868 902 q 792 838 827 842 q 785 838 789 838 q 694 873 751 838 q 661 884 676 884 q 587 806 618 884 q 773 692 773 746 l 773 163 q 970 81 814 81 q 1166 163 1126 81 l 1166 653 q 1031 767 1166 725 q 1096 926 1044 836 q 1183 1017 1147 1017 q 1261 988 1213 1017 l 1309 959 q 1358 946 1330 946 q 1390 949 1373 946 q 1363 872 1383 902 q 1308 838 1342 842 q 1301 838 1304 838 q 1209 873 1267 838 q 1177 884 1192 884 q 1103 806 1134 884 q 1289 692 1289 746 l 1289 136 q 970 0 1221 0 q 712 64 798 0 q 454 0 626 0 q 136 136 203 0 l 136 949 z "},"រ":{"ha":393,"x_min":0,"x_max":359,"o":"m 136 271 q 81 203 81 271 q 136 102 81 102 l 136 271 m 258 68 q 170 0 258 0 q 49 68 85 0 q 14 203 14 136 q 136 339 14 339 l 136 653 q 0 767 136 725 q 65 926 14 836 q 153 1017 116 1017 q 231 988 182 1017 l 278 959 q 328 946 299 946 q 359 949 342 946 q 332 872 353 902 q 277 838 311 842 q 270 838 273 838 q 178 873 236 838 q 146 884 161 884 q 72 806 103 884 q 258 692 258 746 l 258 68 z "},"ល":{"ha":1424,"x_min":136,"x_max":1390,"o":"m 258 102 q 339 271 339 102 q 258 339 339 339 l 258 102 m 1289 136 q 970 0 1221 0 q 651 136 719 0 l 651 854 q 454 936 610 936 q 258 854 298 936 l 258 407 q 407 271 407 407 q 365 68 407 136 q 237 0 322 0 q 136 68 136 0 l 136 882 q 454 1017 203 1017 q 773 882 705 1017 l 773 163 q 970 81 814 81 q 1166 163 1126 81 l 1166 653 q 1031 767 1166 725 q 1096 926 1044 836 q 1183 1017 1147 1017 q 1261 988 1213 1017 l 1309 959 q 1358 946 1330 946 q 1390 949 1373 946 q 1363 872 1383 902 q 1308 838 1342 842 q 1301 838 1304 838 q 1209 873 1267 838 q 1177 884 1192 884 q 1103 806 1134 884 q 1289 692 1289 746 l 1289 136 z "},"វ":{"ha":393,"x_min":0,"x_max":359,"o":"m 136 271 q 81 203 81 271 q 136 102 81 102 l 136 271 m 334 890 q 321 866 334 890 q 277 838 309 842 q 270 838 273 838 q 178 873 235 838 q 146 884 161 884 q 72 806 103 884 q 258 692 258 746 l 258 68 q 170 0 258 0 q 49 68 85 0 q 14 203 14 136 q 136 339 14 339 l 136 653 q 0 767 136 725 q 65 926 14 836 q 153 1017 116 1017 q 231 988 182 1017 l 271 964 q 292 1017 292 987 q 231 1099 292 1099 q 156 1160 156 1099 q 231 1221 156 1221 q 359 1017 359 1221 q 334 890 359 939 z "},"ឝ":{"ha":949,"x_min":68,"x_max":916,"o":"m 103 738 q 85 755 103 738 q 68 818 68 771 q 227 1017 68 865 q 493 899 369 1017 q 653 1017 621 1017 q 779 956 711 1017 q 850 916 821 916 q 882 930 868 916 q 859 835 882 873 q 798 796 836 796 q 629 897 759 796 l 628 897 q 448 777 581 897 q 324 871 374 847 q 227 898 274 895 l 159 834 q 246 724 171 762 l 193 698 q 103 738 138 705 m 692 346 l 692 583 q 475 665 651 665 q 258 583 298 665 l 258 183 q 449 339 338 339 q 543 258 543 339 q 490 203 543 203 q 452 226 452 203 q 422 248 452 248 q 258 25 373 248 l 258 0 l 136 0 l 136 610 q 475 746 203 746 q 814 610 746 746 l 814 346 l 916 346 l 916 264 l 814 264 l 814 0 l 692 0 l 692 264 l 597 264 l 597 346 l 692 346 z "},"ឞ":{"ha":949,"x_min":0,"x_max":916,"o":"m 692 549 l 692 653 q 556 767 692 725 q 621 926 570 836 q 709 1017 672 1017 q 787 988 739 1017 l 834 959 q 884 946 855 946 q 916 949 899 946 q 888 872 909 902 q 833 838 867 842 q 826 838 829 838 q 734 873 792 838 q 702 884 717 884 q 628 806 659 884 q 814 692 814 746 l 814 549 l 916 549 l 916 468 l 814 468 l 814 136 q 475 0 746 0 q 136 136 203 0 l 136 653 q 0 767 136 725 q 65 926 14 836 q 153 1017 116 1017 q 231 988 182 1017 l 278 959 q 328 946 299 946 q 359 949 342 946 q 332 872 353 902 q 277 838 311 842 q 270 838 273 838 q 178 873 236 838 q 146 884 161 884 q 72 806 103 884 q 258 692 258 746 l 258 163 q 475 81 298 81 q 692 163 651 81 l 692 468 l 597 468 l 597 549 l 692 549 z "},"ស":{"ha":1424,"x_min":136,"x_max":1390,"o":"m 258 102 q 326 203 326 102 q 258 271 326 271 l 258 102 m 420 745 q 454 746 437 746 q 773 610 705 746 l 773 163 q 970 81 814 81 q 1166 163 1126 81 l 1166 653 q 1031 767 1166 725 q 1096 926 1044 836 q 1183 1017 1147 1017 q 1261 988 1213 1017 l 1309 959 q 1358 946 1330 946 q 1390 949 1373 946 q 1363 872 1383 902 q 1308 838 1342 842 q 1301 838 1304 838 q 1209 873 1267 838 q 1177 884 1192 884 q 1103 806 1134 884 q 1289 692 1289 746 l 1289 136 q 970 0 1221 0 q 651 136 719 0 l 651 583 q 454 665 610 665 q 258 583 298 665 l 258 339 q 393 203 393 339 q 358 68 393 136 q 237 0 322 0 q 136 68 136 0 l 136 610 q 291 727 178 695 q 170 781 245 752 q 255 933 190 849 q 370 1017 319 1017 q 494 979 413 1017 q 602 947 557 947 q 624 949 614 947 q 596 872 617 902 q 541 838 576 842 q 534 838 538 838 q 412 873 498 838 q 359 884 385 884 q 248 819 298 884 q 420 745 366 784 z "},"ហ":{"ha":1424,"x_min":0,"x_max":1289,"o":"m 136 653 q 0 767 136 725 q 65 926 14 836 q 153 1017 116 1017 q 231 988 182 1017 l 278 959 q 328 946 299 946 q 359 949 342 946 q 332 872 353 902 q 277 838 311 842 q 270 838 273 838 q 178 873 236 838 q 146 884 161 884 q 72 806 103 884 q 258 692 258 746 l 258 163 q 454 81 298 81 q 651 163 610 81 l 651 882 q 970 1017 719 1017 q 1289 882 1221 1017 l 1289 0 l 1166 0 l 1166 854 q 970 936 1126 936 q 773 854 814 936 l 773 136 q 454 0 705 0 q 136 136 203 0 l 136 653 z "},"ឡ":{"ha":1424,"x_min":136,"x_max":1390,"o":"m 654 732 q 692 712 654 712 l 692 749 q 654 732 654 749 m 712 475 q 746 492 746 475 q 729 509 746 509 q 712 475 712 509 m 712 205 q 469 0 712 0 q 203 170 203 0 l 203 339 l 326 339 l 326 170 q 469 81 326 81 q 590 204 590 81 l 590 393 l 475 393 q 136 597 136 393 l 136 814 q 475 1017 136 1017 q 814 814 814 1017 l 814 712 q 700 644 814 644 q 586 732 586 644 q 611 796 586 774 q 692 817 636 817 q 475 936 692 936 q 258 814 258 936 l 258 597 q 475 475 258 475 l 590 475 q 729 576 590 576 q 814 492 814 576 q 712 393 814 393 l 712 205 m 1289 -373 q 1221 -441 1289 -441 q 1107 -389 1160 -441 l 990 -271 l 873 -389 q 760 -441 821 -441 q 692 -373 692 -441 l 692 -237 q 624 -190 624 -237 q 665 -110 624 -153 q 746 -68 705 -68 q 814 -136 814 -68 l 814 -333 l 949 -197 q 990 -176 970 -176 q 1031 -197 1010 -176 l 1166 -332 l 1166 653 q 1031 767 1166 725 q 1096 926 1044 836 q 1183 1017 1147 1017 q 1261 988 1213 1017 l 1309 959 q 1358 946 1330 946 q 1390 949 1373 946 q 1363 872 1383 902 q 1308 838 1342 842 q 1301 838 1304 838 q 1209 873 1267 838 q 1177 884 1192 884 q 1103 806 1134 884 q 1289 692 1289 746 l 1289 -373 z "},"អ":{"ha":949,"x_min":0,"x_max":916,"o":"m 692 271 q 637 203 637 271 q 692 102 637 102 l 692 271 m 136 271 q 81 203 81 271 q 136 102 81 102 l 136 271 m 692 549 l 692 653 q 556 767 692 725 q 621 926 570 836 q 709 1017 672 1017 q 787 988 739 1017 l 834 959 q 884 946 855 946 q 916 949 899 946 q 888 872 909 902 q 833 838 867 842 q 826 838 829 838 q 734 873 792 838 q 702 884 717 884 q 628 806 659 884 q 814 692 814 746 l 814 68 q 726 0 814 0 q 605 68 641 0 q 570 203 570 136 q 692 339 570 339 l 692 468 l 258 468 l 258 68 q 170 0 258 0 q 49 68 85 0 q 14 203 14 136 q 136 339 14 339 l 136 653 q 0 767 136 725 q 65 926 14 836 q 153 1017 116 1017 q 231 988 182 1017 l 278 959 q 328 946 299 946 q 359 949 342 946 q 332 872 353 902 q 277 838 311 842 q 270 838 273 838 q 178 873 236 838 q 146 884 161 884 q 72 806 103 884 q 258 692 258 746 l 258 549 l 692 549 z "},"ឣ":{"ha":949,"x_min":0,"x_max":916,"o":"m 692 271 q 637 203 637 271 q 692 102 637 102 l 692 271 m 136 271 q 81 203 81 271 q 136 102 81 102 l 136 271 m 692 549 l 692 653 q 556 767 692 725 q 621 926 570 836 q 709 1017 672 1017 q 787 988 739 1017 l 834 959 q 884 946 855 946 q 916 949 899 946 q 888 872 909 902 q 833 838 867 842 q 826 838 829 838 q 734 873 792 838 q 702 884 717 884 q 628 806 659 884 q 814 692 814 746 l 814 68 q 726 0 814 0 q 605 68 641 0 q 570 203 570 136 q 692 339 570 339 l 692 468 l 258 468 l 258 68 q 170 0 258 0 q 49 68 85 0 q 14 203 14 136 q 136 339 14 339 l 136 653 q 0 767 136 725 q 65 926 14 836 q 153 1017 116 1017 q 231 988 182 1017 l 278 959 q 328 946 299 946 q 359 949 342 946 q 332 872 353 902 q 277 838 311 842 q 270 838 273 838 q 178 873 236 838 q 146 884 161 884 q 72 806 103 884 q 258 692 258 746 l 258 549 l 692 549 z "},"ឤ":{"ha":1424,"x_min":0,"x_max":1289,"o":"m 692 271 q 637 203 637 271 q 692 102 637 102 l 692 271 m 136 271 q 81 203 81 271 q 136 102 81 102 l 136 271 m 556 767 q 667 926 577 836 q 813 1017 756 1017 q 1093 938 897 1017 q 1289 712 1289 859 l 1289 0 l 1166 0 l 1166 726 q 966 859 1166 781 q 801 897 869 897 q 687 854 728 897 l 640 804 q 814 692 814 745 l 814 68 q 726 0 814 0 q 605 68 641 0 q 570 203 570 136 q 692 339 570 339 l 692 468 l 258 468 l 258 68 q 170 0 258 0 q 49 68 85 0 q 14 203 14 136 q 136 339 14 339 l 136 653 q 0 767 136 725 q 65 926 14 836 q 153 1017 116 1017 q 231 988 182 1017 l 278 959 q 328 946 299 946 q 359 949 342 946 q 332 872 353 902 q 277 838 311 842 q 270 838 273 838 q 178 873 236 838 q 146 884 161 884 q 72 806 103 884 q 258 692 258 746 l 258 549 l 692 549 l 692 653 q 556 767 692 725 z "},"ឥ":{"ha":949,"x_min":68,"x_max":814,"o":"m 258 102 q 326 203 326 102 q 258 271 326 271 l 258 102 m 136 576 q 475 712 203 712 q 814 576 746 712 l 814 0 l 692 0 l 692 549 q 475 631 651 631 q 258 549 298 631 l 258 339 q 393 203 393 339 q 358 68 393 136 q 237 0 322 0 q 136 68 136 0 l 136 576 m 167 678 q 78 747 87 730 q 68 790 68 764 q 78 833 68 815 q 166 934 87 850 q 271 1017 245 1017 q 400 945 295 1017 q 604 848 538 848 q 732 943 732 848 q 699 1004 732 977 q 604 1031 665 1031 q 515 1092 515 1031 q 604 1153 515 1153 q 756 1099 699 1153 q 814 943 814 1044 q 759 805 814 846 q 597 764 705 764 q 352 823 436 764 l 310 852 q 248 878 272 878 q 242 878 245 878 q 192 844 216 874 q 169 792 169 814 q 258 726 169 769 l 167 678 z "},"ឦ":{"ha":1424,"x_min":136,"x_max":1289,"o":"m 258 102 q 326 203 326 102 q 258 271 326 271 l 258 102 m 136 882 q 475 1017 203 1017 q 814 882 746 1017 l 814 0 l 692 0 l 692 854 q 475 936 651 936 q 258 854 298 936 l 258 339 q 393 203 393 339 q 358 68 393 136 q 237 0 322 0 q 136 68 136 0 l 136 882 m 1289 -305 q 965 -441 1289 -441 q 641 -305 641 -441 l 641 -237 q 475 -136 641 -136 q 309 -237 309 -136 l 309 -271 q 394 -288 375 -271 q 412 -330 412 -305 q 363 -411 412 -381 q 271 -441 314 -441 q 186 -373 186 -441 l 186 -237 q 475 -68 186 -68 q 763 -237 763 -68 l 763 -305 q 965 -373 763 -373 q 1166 -305 1166 -373 l 1166 1112 q 1038 1309 1166 1309 q 922 1266 963 1309 q 852 1221 880 1223 l 846 1221 q 793 1241 821 1221 q 746 1371 746 1292 q 760 1460 746 1415 q 773 1554 773 1506 q 712 1601 773 1601 q 780 1669 712 1669 q 895 1554 895 1669 q 878 1457 895 1496 q 860 1371 860 1418 l 860 1341 q 1038 1390 949 1390 q 1289 1112 1289 1390 l 1289 -305 z "},"ឧ":{"ha":949,"x_min":136,"x_max":814,"o":"m 258 695 l 258 644 q 296 678 296 644 q 258 695 296 695 m 258 203 q 289 108 258 134 q 400 81 319 81 q 541 106 480 81 q 692 223 601 130 l 692 407 l 814 407 l 814 0 q 678 -115 814 -115 q 610 -47 610 -115 q 692 0 692 -47 l 692 96 q 568 25 628 49 q 400 0 506 0 q 203 43 260 0 q 136 203 136 93 l 136 385 q 692 712 692 597 l 692 814 q 475 936 692 936 q 258 814 258 936 l 258 763 q 338 742 313 763 q 363 678 363 720 q 250 576 363 576 q 136 644 136 576 l 136 814 q 475 1017 136 1017 q 814 814 814 1017 l 814 712 q 258 345 814 549 l 258 203 z "},"ឨ":{"ha":949,"x_min":68,"x_max":882,"o":"m 258 695 l 258 644 q 296 678 296 644 q 258 695 296 695 m 258 203 q 289 108 258 134 q 400 81 319 81 q 541 106 480 81 q 692 223 601 130 l 692 407 l 814 407 l 814 0 q 678 -115 814 -115 q 610 -47 610 -115 q 692 0 692 -47 l 692 96 q 568 25 628 49 q 400 0 506 0 q 203 43 260 0 q 136 203 136 93 l 136 385 q 692 712 692 597 l 692 814 q 475 936 692 936 q 258 814 258 936 l 258 763 q 338 742 313 763 q 363 678 363 720 q 250 576 363 576 q 136 644 136 576 l 136 814 q 475 1017 136 1017 q 814 814 814 1017 l 814 712 q 258 345 814 549 l 258 203 m 193 1003 q 103 1043 138 1010 q 68 1123 68 1076 q 227 1322 68 1170 q 493 1204 369 1322 q 653 1322 621 1322 q 779 1261 711 1322 q 850 1221 821 1221 q 882 1235 868 1221 q 859 1140 882 1179 q 798 1101 836 1101 q 629 1202 759 1101 l 628 1202 q 448 1082 581 1202 q 324 1176 374 1152 q 227 1203 274 1200 l 159 1139 q 246 1029 171 1067 l 193 1003 z "},"ឩ":{"ha":1017,"x_min":136,"x_max":1017,"o":"m 895 407 l 1017 407 l 1017 -68 l 895 -68 l 895 407 m 258 695 l 258 644 q 296 678 296 644 q 258 695 296 695 m 258 203 q 289 108 258 134 q 400 81 319 81 q 541 106 480 81 q 692 223 601 130 l 692 407 l 814 407 l 814 0 q 678 -115 814 -115 q 610 -47 610 -115 q 692 0 692 -47 l 692 96 q 568 25 628 49 q 400 0 506 0 q 203 43 260 0 q 136 203 136 93 l 136 385 q 692 712 692 597 l 692 814 q 475 936 692 936 q 258 814 258 936 l 258 763 q 338 742 313 763 q 363 678 363 720 q 250 576 363 576 q 136 644 136 576 l 136 814 q 475 1017 136 1017 q 814 814 814 1017 l 814 712 q 258 345 814 549 l 258 203 z "},"ឪ":{"ha":949,"x_min":68,"x_max":814,"o":"m 258 695 l 258 644 q 296 678 296 644 q 258 695 296 695 m 258 203 q 289 108 258 134 q 400 81 319 81 q 541 106 480 81 q 692 223 601 130 l 692 407 l 814 407 l 814 0 q 678 -115 814 -115 q 610 -47 610 -115 q 692 0 692 -47 l 692 96 q 568 25 628 49 q 400 0 506 0 q 203 43 260 0 q 136 203 136 93 l 136 385 q 692 712 692 597 l 692 814 q 475 936 692 936 q 258 814 258 936 l 258 763 q 338 742 313 763 q 363 678 363 720 q 250 576 363 576 q 136 644 136 576 l 136 814 q 475 1017 136 1017 q 814 814 814 1017 l 814 712 q 258 345 814 549 l 258 203 m 167 979 q 78 1048 87 1031 q 68 1091 68 1065 q 78 1134 68 1116 q 166 1235 87 1152 q 271 1318 245 1318 q 400 1246 295 1318 q 604 1149 538 1149 q 732 1244 732 1149 q 699 1305 732 1278 q 604 1332 665 1332 q 515 1393 515 1332 q 604 1454 515 1454 q 756 1400 699 1454 q 814 1244 814 1345 q 759 1106 814 1147 q 597 1065 705 1065 q 352 1124 436 1065 l 310 1153 q 248 1179 272 1179 q 242 1179 245 1179 q 192 1145 216 1175 q 169 1093 169 1116 q 258 1027 169 1070 l 167 979 z "},"ឫ":{"ha":949,"x_min":0,"x_max":916,"o":"m 814 -170 q 709 -322 814 -271 q 395 -373 604 -373 q 216 -351 290 -373 q 102 -285 143 -329 q 395 -305 228 -305 q 621 -271 545 -305 q 695 -170 695 -237 q 683 -144 695 -153 q 645 -136 670 -136 q 666 -85 645 -102 q 729 -68 687 -68 q 793 -94 772 -68 q 814 -170 814 -119 m 692 653 q 556 767 692 725 q 621 926 570 836 q 709 1017 672 1017 q 787 988 739 1017 l 834 959 q 884 946 855 946 q 916 949 899 946 q 888 872 909 902 q 833 838 867 842 q 826 838 829 838 q 734 873 792 838 q 702 884 717 884 q 628 806 659 884 q 814 692 814 746 l 814 136 q 475 0 746 0 q 136 136 203 0 l 136 653 q 0 767 136 725 q 65 926 14 836 q 153 1017 116 1017 q 231 988 182 1017 l 278 959 q 328 946 299 946 q 359 949 342 946 q 332 872 353 902 q 277 838 311 842 q 270 838 273 838 q 178 873 236 838 q 146 884 161 884 q 72 806 103 884 q 258 692 258 746 l 258 163 q 475 81 298 81 q 692 163 651 81 l 692 653 z "},"ឬ":{"ha":949,"x_min":0,"x_max":916,"o":"m 814 -170 q 790 -254 814 -217 q 828 -293 797 -279 q 915 -306 859 -306 q 888 -356 915 -339 q 805 -373 860 -373 q 736 -362 766 -373 q 690 -330 708 -351 q 564 -362 638 -351 q 394 -373 490 -373 q 216 -351 290 -373 q 102 -285 143 -329 q 395 -305 227 -305 q 620 -271 545 -305 q 694 -170 694 -237 q 644 -136 694 -136 q 665 -85 644 -102 q 730 -68 687 -68 q 793 -94 772 -68 q 814 -170 814 -119 m 692 653 q 556 767 692 725 q 621 926 570 836 q 709 1017 672 1017 q 787 988 739 1017 l 834 959 q 884 946 855 946 q 916 949 899 946 q 888 872 909 902 q 833 838 867 842 q 826 838 829 838 q 734 873 792 838 q 702 884 717 884 q 628 806 659 884 q 814 692 814 746 l 814 136 q 475 0 746 0 q 136 136 203 0 l 136 653 q 0 767 136 725 q 65 926 14 836 q 153 1017 116 1017 q 231 988 182 1017 l 278 959 q 328 946 299 946 q 359 949 342 946 q 332 872 353 902 q 277 838 311 842 q 270 838 273 838 q 178 873 236 838 q 146 884 161 884 q 72 806 103 884 q 258 692 258 746 l 258 163 q 475 81 298 81 q 692 163 651 81 l 692 653 z "},"ឭ":{"ha":949,"x_min":102,"x_max":814,"o":"m 258 102 q 339 271 339 102 q 258 339 339 339 l 258 102 m 136 814 q 210 957 136 897 q 325 1017 285 1017 q 475 926 359 1017 q 625 1017 591 1017 q 739 957 665 1017 q 814 814 814 897 l 814 0 l 692 0 l 692 814 q 645 910 692 884 q 626 914 636 914 q 475 814 576 914 q 323 914 374 914 q 305 910 313 914 q 258 814 258 884 l 258 407 q 407 271 407 407 q 365 68 407 136 q 237 0 322 0 q 136 68 136 0 l 136 814 m 814 -170 q 709 -322 814 -271 q 395 -373 604 -373 q 216 -351 290 -373 q 102 -285 143 -329 q 395 -305 228 -305 q 621 -271 545 -305 q 695 -170 695 -237 q 683 -144 695 -153 q 645 -136 670 -136 q 666 -85 645 -102 q 729 -68 687 -68 q 793 -94 772 -68 q 814 -170 814 -119 z "},"ឮ":{"ha":949,"x_min":102,"x_max":915,"o":"m 258 102 q 339 271 339 102 q 258 339 339 339 l 258 102 m 136 814 q 210 957 136 897 q 325 1017 285 1017 q 475 926 359 1017 q 625 1017 591 1017 q 739 957 665 1017 q 814 814 814 897 l 814 0 l 692 0 l 692 814 q 645 910 692 884 q 626 914 636 914 q 475 814 576 914 q 323 914 374 914 q 305 910 313 914 q 258 814 258 884 l 258 407 q 407 271 407 407 q 365 68 407 136 q 237 0 322 0 q 136 68 136 0 l 136 814 m 814 -170 q 790 -254 814 -217 q 828 -293 797 -279 q 915 -306 859 -306 q 888 -356 915 -339 q 805 -373 860 -373 q 736 -362 766 -373 q 690 -330 708 -351 q 564 -362 638 -351 q 394 -373 490 -373 q 216 -351 290 -373 q 102 -285 143 -329 q 395 -305 227 -305 q 620 -271 545 -305 q 694 -170 694 -237 q 644 -136 694 -136 q 665 -85 644 -102 q 730 -68 687 -68 q 793 -94 772 -68 q 814 -170 814 -119 z "},"ឯ":{"ha":949,"x_min":34,"x_max":814,"o":"m 136 536 q 102 475 102 523 q 136 441 102 441 l 136 536 m 136 373 q 34 475 34 373 q 170 610 34 610 q 258 543 258 610 l 258 108 l 418 268 q 475 297 446 297 q 533 268 504 297 l 692 109 l 692 814 q 509 936 692 936 q 258 848 258 936 q 203 780 258 780 q 136 848 136 780 q 153 1012 136 966 q 170 1105 170 1058 q 102 1153 170 1153 q 170 1221 102 1221 q 292 1105 292 1221 q 275 1009 292 1048 q 260 960 264 986 q 509 1017 328 1017 q 814 814 814 1017 l 814 68 q 746 0 814 0 q 633 52 685 0 l 475 210 l 317 52 q 203 0 265 0 q 136 68 136 0 l 136 373 z "},"ឰ":{"ha":949,"x_min":136,"x_max":814,"o":"m 692 -101 q 515 -207 587 -168 l 579 -230 q 612 -234 597 -234 q 662 -219 642 -234 q 692 -126 692 -197 l 692 -101 m 258 102 q 339 271 339 102 q 258 339 339 339 l 258 102 m 420 -335 q 438 -282 438 -317 l 438 -242 q 281 -305 351 -286 l 281 -319 q 310 -344 281 -336 q 362 -353 338 -353 q 420 -335 403 -353 m 814 -126 q 760 -292 814 -244 q 654 -324 724 -324 q 578 -317 621 -324 l 526 -304 q 490 -407 526 -373 q 368 -441 454 -441 q 219 -415 269 -441 q 170 -339 170 -390 q 208 -226 170 -241 q 429 -145 328 -191 q 692 33 530 -99 l 692 814 q 645 910 692 884 q 626 914 636 914 q 475 814 576 914 q 323 914 374 914 q 305 910 313 914 q 258 814 258 884 l 258 407 q 407 271 407 407 q 365 68 407 136 q 237 0 322 0 q 136 68 136 0 l 136 814 q 210 957 136 897 q 325 1017 285 1017 q 475 926 359 1017 q 625 1017 591 1017 q 739 957 665 1017 q 814 814 814 897 l 814 -126 z "},"ឱ":{"ha":949,"x_min":109,"x_max":848,"o":"m 202 987 q 109 1075 109 1008 l 109 1126 q 153 1202 109 1161 l 197 1244 q 475 1328 293 1328 q 799 1201 677 1328 q 848 1093 848 1159 q 762 979 848 1027 q 768 1011 768 994 q 703 1134 768 1067 q 475 1221 617 1221 q 232 1177 254 1221 q 210 1109 210 1134 q 303 1028 210 1076 l 202 987 m 258 695 l 258 644 q 296 678 296 644 q 258 695 296 695 m 258 203 q 289 108 258 134 q 400 81 319 81 q 541 106 480 81 q 692 223 601 130 l 692 407 l 814 407 l 814 0 q 678 -115 814 -115 q 610 -47 610 -115 q 692 0 692 -47 l 692 96 q 568 25 628 49 q 400 0 506 0 q 203 43 260 0 q 136 203 136 93 l 136 385 q 692 712 692 597 l 692 814 q 475 936 692 936 q 258 814 258 936 l 258 763 q 338 742 313 763 q 363 678 363 720 q 250 576 363 576 q 136 644 136 576 l 136 814 q 475 1017 136 1017 q 814 814 814 1017 l 814 712 q 258 345 814 549 l 258 203 z "},"ឲ":{"ha":949,"x_min":136,"x_max":814,"o":"m 692 262 q 689 331 692 310 q 613 357 686 351 q 600 346 607 351 l 465 240 q 423 222 442 222 q 386 241 403 222 q 370 273 370 258 q 393 309 370 292 l 513 404 q 652 524 612 481 q 692 589 692 567 q 653 638 692 623 q 580 654 614 654 q 523 639 545 654 q 500 589 500 623 q 576 551 500 551 q 490 493 534 493 q 421 517 449 493 q 394 589 394 541 q 443 701 394 655 q 580 746 492 746 q 764 701 715 746 q 814 589 814 656 q 793 515 814 554 q 711 412 768 467 q 781 369 755 398 q 814 262 814 330 l 814 203 q 475 0 814 0 q 136 203 136 0 l 136 814 q 475 1017 136 1017 q 814 814 814 1017 l 692 814 q 471 936 692 936 q 250 814 250 936 l 250 203 q 471 81 250 81 q 692 203 692 81 l 692 262 z "},"ឳ":{"ha":949,"x_min":102,"x_max":848,"o":"m 848 1154 q 762 979 848 1027 q 766 1005 766 991 q 699 1134 766 1063 q 475 1221 617 1221 q 225 1177 247 1221 q 203 1109 203 1134 q 296 1028 203 1076 l 195 980 q 102 1075 102 1008 l 102 1126 q 146 1202 102 1161 l 191 1244 q 475 1328 286 1328 q 752 1243 640 1328 l 752 1257 q 692 1392 752 1351 l 661 1415 q 642 1445 642 1428 q 652 1472 642 1457 q 682 1491 665 1491 q 719 1476 699 1491 l 762 1446 q 848 1229 848 1385 l 848 1154 m 258 695 l 258 644 q 296 678 296 644 q 258 695 296 695 m 258 203 q 289 108 258 134 q 400 81 319 81 q 541 106 480 81 q 692 223 601 130 l 692 407 l 814 407 l 814 0 q 678 -115 814 -115 q 610 -47 610 -115 q 692 0 692 -47 l 692 96 q 568 25 628 49 q 400 0 506 0 q 203 43 260 0 q 136 203 136 93 l 136 385 q 692 712 692 597 l 692 814 q 475 936 692 936 q 258 814 258 936 l 258 763 q 338 742 313 763 q 363 678 363 720 q 250 576 363 576 q 136 644 136 576 l 136 814 q 475 1017 136 1017 q 814 814 814 1017 l 814 712 q 258 345 814 549 l 258 203 z "},"ា":{"ha":393,"x_min":-249,"x_max":258,"o":"m 258 712 l 258 0 l 136 0 l 136 712 q 57 831 136 766 q -68 895 -21 895 q -204 816 -111 895 l -249 878 q -68 1017 -140 1017 q 137 930 16 1017 q 258 712 258 843 z "},"ិ":{"ha":0,"x_min":-780,"x_max":-170,"o":"m -780 1356 q -576 1526 -780 1526 q -227 1373 -400 1526 q -170 1289 -170 1322 q -237 1255 -170 1255 l -644 1255 q -780 1356 -780 1255 m -678 1356 q -644 1322 -678 1322 l -292 1322 q -440 1406 -380 1388 q -576 1424 -501 1424 q -678 1356 -678 1424 z "},"ី":{"ha":0,"x_min":-780,"x_max":-170,"o":"m -678 1356 q -644 1322 -678 1322 l -292 1322 q -440 1406 -380 1388 q -576 1424 -501 1424 q -678 1356 -678 1424 m -260 1401 l -260 1594 l -170 1594 l -170 1289 q -237 1255 -170 1255 l -644 1255 q -780 1356 -780 1255 q -576 1526 -780 1526 q -260 1401 -416 1526 z "},"ឹ":{"ha":0,"x_min":-780,"x_max":-170,"o":"m -678 1356 q -644 1322 -678 1322 l -292 1322 q -455 1402 -389 1380 q -590 1424 -522 1424 q -678 1356 -678 1424 m -438 1489 l -438 1491 q -397 1568 -431 1542 q -305 1594 -363 1594 q -203 1560 -237 1594 q -170 1458 -170 1526 q -214 1347 -170 1380 l -216 1345 q -170 1289 -170 1307 q -237 1255 -170 1255 l -644 1255 q -780 1356 -780 1255 q -590 1526 -780 1526 q -438 1489 -517 1526 m -359 1445 q -326 1424 -342 1435 q -295 1404 -309 1414 q -251 1458 -251 1409 q -305 1512 -251 1512 q -359 1458 -359 1512 q -359 1445 -359 1454 z "},"ឺ":{"ha":0,"x_min":-780,"x_max":-170,"o":"m -678 1356 q -644 1322 -678 1322 l -292 1322 q -440 1406 -380 1388 q -576 1424 -501 1424 q -678 1356 -678 1424 m -430 1499 l -430 1594 l -339 1594 l -339 1456 q -260 1401 -299 1432 l -260 1594 l -170 1594 l -170 1289 q -237 1255 -170 1255 l -644 1255 q -780 1356 -780 1255 q -576 1526 -780 1526 q -430 1499 -503 1526 z "},"ុ":{"ha":0,"x_min":-305,"x_max":-170,"o":"m -170 -441 l -271 -441 l -271 -181 q -305 -127 -305 -169 q -237 -68 -305 -68 q -170 -127 -170 -68 l -170 -441 z "},"ូ":{"ha":0,"x_min":-464,"x_max":-90,"o":"m -301 -441 q -456 -327 -456 -441 q -444 -253 -456 -294 l -410 -160 q -464 -98 -464 -160 q -382 -37 -464 -37 q -299 -115 -299 -37 q -313 -191 -299 -146 l -341 -271 q -349 -307 -349 -292 q -301 -345 -349 -345 q -193 -206 -235 -345 q -107 -37 -144 -37 q -90 -79 -90 -37 q -116 -253 -90 -133 q -301 -441 -155 -441 z "},"ួ":{"ha":0,"x_min":-528,"x_max":-90,"o":"m -309 -360 q -429 -441 -372 -441 q -528 -358 -528 -441 q -489 -235 -528 -310 l -447 -157 q -504 -95 -504 -157 q -422 -33 -504 -33 q -334 -75 -355 -33 q -328 -108 -328 -90 q -352 -191 -328 -142 l -393 -267 q -418 -340 -418 -317 q -402 -357 -418 -357 q -271 -237 -367 -357 q -233 -357 -257 -357 q -194 -280 -210 -357 q -117 -33 -143 -33 q -90 -94 -90 -33 q -102 -281 -90 -155 q -205 -441 -127 -441 q -309 -360 -282 -441 z "},"ើ":{"ha":0,"x_min":-780,"x_max":-170,"o":"m -678 1356 q -644 1322 -678 1322 l -292 1322 q -440 1406 -380 1388 q -576 1424 -501 1424 q -678 1356 -678 1424 m -260 1401 l -260 1594 l -170 1594 l -170 1289 q -237 1255 -170 1255 l -644 1255 q -780 1356 -780 1255 q -576 1526 -780 1526 q -260 1401 -416 1526 z "},"ឿ":{"ha":393,"x_min":-411,"x_max":258,"o":"m -313 1352 l 26 1352 q -95 1420 -40 1404 q -212 1435 -150 1435 q -313 1352 -313 1435 m 136 1153 q 60 1255 136 1255 l -313 1255 q -411 1352 -411 1255 q -212 1526 -411 1526 q -65 1499 -138 1526 l -65 1628 l 26 1628 l 26 1560 l 26 1456 q 104 1401 66 1432 l 104 1594 l 195 1594 l 195 1320 q 258 1153 258 1272 l 258 -271 q 0 -441 258 -441 q -258 -271 -258 -441 l -258 -68 l -136 -68 l -136 -271 q 0 -359 -136 -359 q 136 -271 136 -359 l 136 1153 z "},"ៀ":{"ha":393,"x_min":-319,"x_max":258,"o":"m 258 -271 q 0 -441 258 -441 q -258 -271 -258 -441 l -258 -68 l -136 -68 l -136 -271 q 0 -359 -136 -359 q 136 -271 136 -359 l 136 1112 q 7 1309 136 1309 q -109 1266 -68 1309 q -179 1221 -151 1223 l -185 1221 q -238 1241 -210 1221 q -285 1371 -285 1292 q -271 1460 -285 1415 q -258 1554 -258 1506 q -319 1601 -258 1601 q -251 1669 -319 1669 q -136 1554 -136 1669 q -153 1457 -136 1496 q -171 1371 -171 1418 l -171 1341 q 7 1390 -81 1390 q 258 1112 258 1390 l 258 -271 z "},"េ":{"ha":393,"x_min":0,"x_max":366,"o":"m 258 102 q 298 203 298 102 q 258 271 298 271 l 258 102 m 136 653 q 0 767 136 725 q 65 926 14 836 q 153 1017 116 1017 q 231 988 182 1017 l 278 959 q 328 946 299 946 q 359 949 342 946 q 332 872 353 902 q 277 838 311 842 q 270 838 273 838 q 178 873 236 838 q 146 884 161 884 q 72 806 103 884 q 258 692 258 746 l 258 339 q 366 203 366 339 q 331 68 366 136 q 224 0 295 0 q 136 68 136 0 l 136 653 z "},"ែ":{"ha":393,"x_min":0,"x_max":373,"o":"m 258 102 q 298 203 298 102 q 258 271 298 271 l 258 102 m 136 653 q 0 767 136 725 q 65 926 14 836 q 153 1017 116 1017 q 231 988 182 1017 l 278 959 q 328 946 299 946 q 359 949 342 946 q 332 872 353 902 q 277 838 311 842 q 270 838 273 838 q 178 873 236 838 q 146 884 161 884 q 72 806 103 884 q 258 692 258 746 l 258 339 q 366 203 366 339 q 331 68 366 136 q 224 0 295 0 q 136 68 136 0 l 136 653 m 149 1221 q 112 1204 112 1221 q 170 1187 112 1187 q 243 1219 215 1187 q 271 1302 271 1251 q 251 1365 271 1339 q 197 1390 231 1390 q 136 1441 136 1390 q 197 1492 136 1492 q 323 1443 273 1492 q 373 1302 373 1394 q 324 1175 373 1231 q 170 1119 275 1119 q 47 1140 94 1119 q 0 1204 0 1161 q 19 1267 0 1246 q 75 1289 37 1289 q 130 1272 112 1289 q 149 1221 149 1255 z "},"ៃ":{"ha":393,"x_min":0,"x_max":373,"o":"m 258 102 q 298 203 298 102 q 258 271 298 271 l 258 102 m 136 653 q 0 767 136 725 q 65 926 14 836 q 153 1017 116 1017 q 231 988 182 1017 l 278 959 q 328 946 299 946 q 359 949 342 946 q 332 872 353 902 q 277 838 311 842 q 270 838 273 838 q 178 873 236 838 q 146 884 161 884 q 72 806 103 884 q 258 692 258 746 l 258 339 q 366 203 366 339 q 331 68 366 136 q 224 0 295 0 q 136 68 136 0 l 136 653 m 119 1268 q 170 1221 170 1268 q 203 1187 170 1187 q 254 1204 237 1187 q 271 1255 271 1221 q 254 1319 271 1302 q 203 1336 237 1336 l 170 1336 q 68 1404 68 1336 q 0 1458 68 1458 q 68 1526 0 1526 q 145 1495 121 1526 q 170 1404 170 1465 l 203 1404 q 335 1370 297 1404 q 373 1255 373 1336 q 335 1153 373 1187 q 203 1119 297 1119 q 68 1214 68 1119 q 119 1268 68 1268 z "},"ោ":{"ha":467,"x_min":-170,"x_max":297,"o":"m -136 850 q -170 922 -170 882 q -144 964 -170 947 q -5 1017 -66 1017 q 114 972 56 1017 l 244 869 q 297 765 297 829 l 297 68 q 233 0 297 0 q 170 68 170 0 l 170 765 l 9 895 q -35 913 -16 913 q -56 906 -46 913 l -136 850 z "},"ៅ":{"ha":467,"x_min":-170,"x_max":349,"o":"m 288 814 q 297 765 297 791 l 297 68 q 233 0 297 0 q 170 68 170 0 l 170 765 l 9 895 q -35 913 -16 913 q -56 906 -46 913 l -136 850 q -170 922 -170 882 q -144 964 -170 947 q -5 1017 -66 1017 q 114 972 56 1017 l 221 888 l 221 1153 q 153 1221 221 1221 q 238 1289 153 1289 q 349 1153 349 1289 l 349 949 q 288 814 349 899 z "},"ំ":{"ha":0,"x_min":-627,"x_max":-322,"o":"m -529 1407 q -515 1356 -529 1373 q -475 1339 -502 1339 q -434 1356 -448 1339 q -420 1407 -420 1373 q -434 1458 -420 1441 q -475 1475 -448 1475 q -515 1458 -502 1475 q -529 1407 -529 1441 m -322 1407 q -360 1293 -322 1331 q -475 1255 -398 1255 q -589 1293 -551 1255 q -627 1407 -627 1331 q -589 1522 -627 1484 q -475 1560 -551 1560 q -360 1522 -398 1560 q -322 1407 -322 1484 z "},"ះ":{"ha":576,"x_min":136,"x_max":441,"o":"m 234 831 q 248 780 234 797 q 288 763 261 763 q 329 780 315 763 q 342 831 342 797 q 329 882 342 865 q 288 899 315 899 q 248 882 261 899 q 234 831 234 865 m 441 831 q 403 716 441 754 q 288 678 365 678 q 174 716 212 678 q 136 831 136 754 q 174 945 136 907 q 288 983 212 983 q 403 945 365 983 q 441 831 441 907 m 234 186 q 248 136 234 153 q 288 119 261 119 q 329 136 315 119 q 342 186 342 153 q 329 237 342 220 q 288 254 315 254 q 248 237 261 254 q 234 186 234 220 m 441 186 q 403 72 441 110 q 288 34 365 34 q 174 72 212 34 q 136 186 136 110 q 174 301 136 263 q 288 339 212 339 q 403 301 365 339 q 441 186 441 263 z "},"ៈ":{"ha":509,"x_min":136,"x_max":373,"o":"m 220 102 q 157 123 178 102 q 136 186 136 144 q 157 250 136 229 q 220 271 178 271 q 284 250 263 271 q 305 186 305 229 q 322 165 305 165 q 373 186 339 165 q 318 123 356 144 q 220 102 279 102 m 220 745 q 157 766 178 745 q 136 829 136 787 q 157 893 136 872 q 220 914 178 914 q 284 892 263 914 q 305 829 305 871 q 322 808 305 808 q 373 829 339 808 q 318 766 356 787 q 220 745 279 745 z "},"៉":{"ha":0,"x_min":-641,"x_max":-309,"o":"m -529 1560 l -529 1329 q -585 1255 -529 1275 q -641 1329 -641 1275 l -641 1560 l -529 1560 m -309 1560 l -309 1329 q -364 1255 -309 1275 q -420 1329 -420 1275 l -420 1560 l -309 1560 z "},"៊":{"ha":0,"x_min":-865,"x_max":-85,"o":"m -784 1092 q -865 1156 -865 1119 q -821 1211 -865 1181 l -776 1240 q -665 1299 -687 1299 q -567 1246 -642 1299 l -529 1219 q -492 1205 -511 1205 q -457 1219 -475 1205 l -423 1246 q -330 1299 -355 1299 q -268 1270 -307 1299 l -191 1210 q -135 1192 -168 1192 q -85 1200 -113 1192 q -197 1120 -153 1120 q -266 1139 -241 1120 l -315 1178 q -370 1198 -340 1198 q -445 1159 -399 1198 q -519 1120 -492 1120 q -592 1139 -564 1120 l -647 1178 q -704 1198 -675 1198 q -745 1183 -726 1198 q -763 1152 -763 1169 q -713 1115 -763 1135 l -784 1092 z "},"់":{"ha":0,"x_min":-532,"x_max":-417,"o":"m -417 1594 l -417 1336 q -475 1255 -417 1275 q -532 1336 -532 1275 l -532 1594 l -417 1594 z "},"៌":{"ha":0,"x_min":-708,"x_max":-241,"o":"m -526 1333 q -597 1288 -555 1320 q -664 1255 -638 1255 q -699 1273 -686 1255 q -708 1299 -708 1286 q -665 1371 -708 1340 l -601 1414 q -483 1531 -505 1480 q -462 1611 -462 1581 q -404 1678 -462 1678 q -347 1611 -347 1678 q -370 1522 -348 1561 q -485 1408 -391 1482 q -396 1425 -438 1425 q -355 1421 -375 1425 q -255 1345 -296 1408 q -241 1303 -241 1322 q -267 1263 -241 1278 q -295 1255 -281 1255 q -341 1289 -321 1255 q -417 1346 -371 1339 q -526 1333 -497 1346 z "},"៍":{"ha":0,"x_min":-648,"x_max":-166,"o":"m -546 1374 q -538 1336 -546 1348 q -505 1323 -529 1323 q -471 1335 -471 1323 q -424 1356 -471 1356 q -376 1335 -376 1356 q -406 1275 -376 1295 q -502 1255 -436 1255 q -618 1284 -588 1255 q -648 1373 -648 1314 q -617 1466 -648 1426 q -498 1506 -587 1506 q -380 1466 -412 1506 q -284 1512 -328 1482 q -212 1590 -241 1541 l -205 1592 q -176 1572 -192 1592 q -166 1549 -166 1558 q -174 1533 -166 1539 q -245 1456 -205 1490 q -338 1398 -287 1423 q -385 1390 -362 1390 q -478 1438 -435 1438 q -527 1419 -509 1438 q -546 1374 -546 1399 z "},"៎":{"ha":0,"x_min":-617,"x_max":-332,"o":"m -515 1356 l -617 1356 l -617 1438 l -515 1438 l -515 1539 l -434 1539 l -434 1438 l -332 1438 l -332 1356 l -434 1356 l -434 1255 l -515 1255 l -515 1356 z "},"៏":{"ha":0,"x_min":-705,"x_max":-244,"o":"m -326 1695 q -258 1645 -258 1695 q -326 1594 -258 1594 q -381 1526 -349 1594 l -392 1492 l -461 1492 q -604 1390 -604 1492 q -576 1322 -604 1322 q -475 1415 -549 1322 q -366 1322 -400 1322 q -346 1356 -346 1322 q -380 1390 -346 1390 q -312 1458 -380 1458 q -244 1356 -244 1458 q -363 1255 -244 1255 q -475 1322 -427 1255 q -580 1255 -522 1255 q -705 1390 -705 1255 q -461 1560 -705 1560 q -326 1695 -412 1695 z "},"័":{"ha":0,"x_min":-610,"x_max":-136,"o":"m -495 1492 q -407 1421 -407 1492 q -458 1356 -407 1356 q -509 1390 -502 1356 q -441 1323 -509 1323 q -279 1359 -322 1323 q -237 1467 -237 1395 q -271 1548 -237 1548 q -305 1582 -305 1548 q -271 1616 -305 1616 q -178 1579 -220 1616 q -136 1467 -136 1541 q -212 1308 -136 1360 q -441 1255 -288 1255 q -568 1289 -526 1255 q -610 1390 -610 1322 q -495 1492 -610 1492 z "},"៑":{"ha":0,"x_min":-797,"x_max":-153,"o":"m -153 1221 l -153 1119 l -797 1119 l -797 1221 l -153 1221 z "},"្":{"ha":0,"x_min":-610,"x_max":-339,"o":"m -339 -305 l -441 -305 l -441 -407 l -509 -407 l -509 -305 l -610 -305 l -610 -237 l -509 -237 l -509 -136 l -441 -136 l -441 -237 l -339 -237 l -339 -305 z "},"៓":{"ha":0,"x_min":-644,"x_max":-305,"o":"m -576 1255 q -551 1204 -576 1221 q -475 1187 -526 1187 q -398 1204 -424 1187 q -373 1255 -373 1221 q -398 1305 -373 1289 q -475 1322 -424 1322 q -551 1305 -526 1322 q -576 1255 -576 1289 m -305 1255 q -348 1153 -305 1187 q -475 1119 -390 1119 q -602 1153 -559 1119 q -644 1255 -644 1187 q -602 1356 -644 1322 q -475 1390 -559 1390 q -348 1356 -390 1390 q -305 1255 -305 1322 z "},"។":{"ha":970,"x_min":136,"x_max":834,"o":"m 712 944 l 712 1017 l 834 1017 l 834 139 q 792 30 834 60 q 685 0 749 0 q 629 17 648 0 q 610 68 610 34 q 683 81 653 68 q 712 139 712 94 l 712 828 l 621 781 q 319 678 435 678 q 136 848 136 678 q 319 1017 136 1017 q 387 966 387 1017 q 319 916 387 916 q 258 848 258 916 q 319 780 258 780 q 574 870 406 780 l 712 944 z "},"៕":{"ha":1187,"x_min":136,"x_max":1051,"o":"m 949 1017 l 1051 1017 l 1051 102 q 1009 26 1051 51 q 882 0 966 0 q 932 42 916 17 q 949 102 949 68 l 949 1017 m 712 944 l 712 1017 l 834 1017 l 834 139 q 792 30 834 60 q 685 0 749 0 q 629 17 648 0 q 610 68 610 34 q 683 81 653 68 q 712 139 712 94 l 712 828 l 621 781 q 319 678 435 678 q 136 848 136 678 q 319 1017 136 1017 q 387 966 387 1017 q 319 916 387 916 q 258 848 258 916 q 319 780 258 780 q 574 870 406 780 l 712 944 z "},"៖":{"ha":712,"x_min":136,"x_max":576,"o":"m 288 831 q 305 780 288 797 q 356 763 322 763 q 407 780 390 763 q 424 831 424 797 q 407 882 424 865 q 356 899 390 899 q 305 882 322 899 q 288 831 288 865 m 509 831 q 471 716 509 754 q 356 678 433 678 q 241 716 279 678 q 203 831 203 754 q 241 945 203 907 q 356 983 279 983 q 471 945 433 983 q 509 831 509 907 m 288 186 q 305 136 288 153 q 356 119 322 119 q 407 136 390 119 q 424 186 424 153 q 407 237 424 220 q 356 254 390 254 q 305 237 322 254 q 288 186 288 220 m 509 186 q 471 72 509 110 q 356 34 433 34 q 241 72 279 34 q 203 186 203 110 q 241 301 203 263 q 356 339 279 339 q 471 301 433 339 q 509 186 509 263 m 576 559 l 576 457 l 136 457 l 136 559 l 576 559 z "},"ៗ":{"ha":936,"x_min":136,"x_max":800,"o":"m 324 696 q 172 728 209 696 q 136 820 136 761 q 203 918 157 869 q 320 1017 249 968 l 498 875 l 694 1017 l 800 1017 l 800 237 q 720 59 800 119 q 498 0 639 0 q 287 30 357 0 q 216 119 216 59 q 236 178 216 158 q 297 197 256 197 q 347 134 297 167 q 498 102 397 102 q 629 144 580 102 q 678 237 678 186 l 678 874 l 499 756 l 334 881 l 268 820 q 279 790 268 800 q 324 780 289 780 q 354 789 344 780 q 364 814 364 797 q 394 800 385 814 q 404 755 404 785 q 385 710 404 725 q 324 696 364 696 z "},"៘":{"ha":3364,"x_min":136,"x_max":3228,"o":"m 3106 944 l 3106 1017 l 3228 1017 l 3228 139 q 3186 30 3228 60 q 3079 0 3143 0 q 3023 17 3042 0 q 3004 68 3004 34 q 3077 81 3047 68 q 3106 139 3106 94 l 3106 828 l 3015 781 q 2713 678 2829 678 q 2530 848 2530 678 q 2713 1017 2530 1017 q 2780 966 2780 1017 q 2713 916 2780 916 q 2652 848 2652 916 q 2713 780 2652 780 q 2968 870 2799 780 l 3106 944 m 1227 102 q 1309 271 1309 102 q 1227 339 1309 339 l 1227 102 m 2258 136 q 1940 0 2190 0 q 1621 136 1689 0 l 1621 854 q 1424 936 1580 936 q 1227 854 1268 936 l 1227 407 q 1377 271 1377 407 q 1334 68 1377 136 q 1207 0 1292 0 q 1105 68 1105 0 l 1105 882 q 1424 1017 1173 1017 q 1743 882 1675 1017 l 1743 163 q 1940 81 1784 81 q 2136 163 2096 81 l 2136 653 q 2001 767 2136 725 q 2065 926 2014 836 q 2153 1017 2117 1017 q 2231 988 2183 1017 l 2279 959 q 2328 946 2300 946 q 2360 949 2343 946 q 2333 872 2353 902 q 2277 838 2312 842 q 2271 838 2274 838 q 2179 873 2237 838 q 2146 884 2161 884 q 2072 806 2104 884 q 2258 692 2258 746 l 2258 136 m 712 944 l 712 1017 l 834 1017 l 834 139 q 792 30 834 60 q 685 0 749 0 q 629 17 648 0 q 610 68 610 34 q 683 81 653 68 q 712 139 712 94 l 712 828 l 621 781 q 319 678 435 678 q 136 848 136 678 q 319 1017 136 1017 q 387 966 387 1017 q 319 916 387 916 q 258 848 258 916 q 319 780 258 780 q 574 870 406 780 l 712 944 z "},"៙":{"ha":1051,"x_min":203,"x_max":848,"o":"m 526 0 q 284 119 365 0 q 203 475 203 237 q 284 831 203 712 q 526 949 365 949 q 767 831 686 949 q 848 475 848 712 q 767 119 848 237 q 526 0 686 0 m 526 870 q 345 772 405 870 q 284 475 284 673 q 345 178 284 277 q 526 79 405 79 q 707 178 646 79 q 767 475 767 277 q 707 772 767 673 q 526 870 646 870 m 526 158 q 405 237 445 158 q 365 475 365 317 q 405 712 365 633 q 526 791 445 791 q 646 712 606 791 q 686 475 686 633 q 646 237 686 317 q 526 158 606 158 m 526 712 q 465 653 486 712 q 445 475 445 593 q 465 297 445 356 q 526 237 486 237 q 586 297 566 237 q 606 475 606 356 q 586 653 606 593 q 526 712 566 712 z "},"៚":{"ha":2658,"x_min":170,"x_max":2489,"o":"m 1981 365 q 1970 347 1970 353 q 1971 344 1970 345 q 1979 338 1974 338 q 1988 342 1983 338 q 1988 345 1988 343 q 1981 365 1988 350 m 1080 664 q 1122 753 1122 728 q 1117 767 1122 762 q 1085 783 1101 783 q 1048 760 1066 783 q 1044 744 1044 753 q 1072 676 1044 720 q 1080 664 1076 670 m 1269 298 q 1239 243 1239 260 q 1242 235 1239 238 q 1270 220 1255 220 q 1295 231 1282 220 q 1299 239 1299 233 q 1269 298 1299 257 m 1499 690 q 1527 737 1527 724 q 1525 742 1527 740 q 1503 755 1515 755 q 1482 747 1493 755 q 1479 739 1479 745 q 1499 690 1479 724 m 1653 317 q 1639 298 1639 302 q 1640 296 1639 297 q 1651 291 1645 291 q 1662 294 1656 291 q 1663 297 1663 295 q 1653 317 1663 302 m 1887 664 q 1904 685 1904 681 q 1903 686 1904 686 q 1895 689 1900 689 q 1883 683 1889 689 q 1881 680 1881 682 q 1887 664 1881 674 m 1976 538 q 2005 500 1992 519 q 2064 521 2032 513 q 2245 543 2142 543 l 2424 543 q 2489 492 2489 543 q 2422 441 2489 441 l 2245 441 q 2054 418 2099 441 q 2074 367 2068 391 q 2079 331 2079 347 q 2047 264 2079 289 q 1973 235 2008 235 q 1963 236 1968 235 q 1888 284 1923 241 q 1862 351 1862 317 q 1864 371 1862 361 q 1924 452 1874 412 q 1902 484 1914 467 q 1880 513 1890 498 q 1811 454 1849 484 q 1721 379 1758 410 q 1742 331 1734 353 q 1753 275 1753 300 q 1725 215 1753 237 q 1650 186 1685 186 q 1638 186 1644 186 q 1561 238 1596 193 q 1546 285 1546 258 q 1569 358 1546 317 q 1597 398 1581 377 q 1539 475 1573 431 l 1492 533 q 1416 452 1459 495 q 1329 366 1365 404 q 1374 285 1358 321 q 1390 219 1390 248 q 1358 155 1390 178 q 1265 117 1310 117 q 1257 118 1261 117 q 1166 172 1208 122 q 1145 231 1145 197 q 1166 311 1145 266 q 1206 376 1181 341 q 1139 449 1177 408 q 1089 503 1112 477 q 981 362 1044 438 q 697 91 829 181 q 451 0 564 0 q 240 127 311 0 q 170 509 170 254 q 250 890 170 763 q 492 1017 331 1017 q 734 950 653 1017 q 814 749 814 883 q 755 528 814 611 q 579 414 696 444 q 553 410 565 410 q 509 446 519 410 q 506 464 506 456 q 553 511 506 498 q 672 590 632 532 q 712 744 712 648 q 657 872 712 829 q 492 916 602 916 q 327 814 382 916 q 272 513 272 713 l 272 509 q 317 203 272 305 q 452 102 361 102 q 651 180 541 102 q 892 416 761 259 q 1025 585 973 514 q 971 682 989 637 q 954 759 954 724 q 983 836 954 804 q 1083 895 1033 894 l 1084 895 q 1183 838 1133 895 q 1208 766 1208 810 q 1182 663 1208 722 q 1142 585 1166 627 q 1206 514 1171 552 q 1265 449 1238 480 q 1340 528 1298 486 q 1434 619 1395 579 q 1397 704 1412 659 q 1386 762 1386 736 q 1419 833 1386 808 q 1506 867 1466 867 q 1516 867 1511 867 q 1600 812 1562 861 q 1618 758 1618 789 q 1593 673 1618 722 q 1555 611 1578 644 q 1610 541 1579 580 q 1664 470 1640 504 q 1735 534 1695 500 q 1820 604 1785 574 q 1796 661 1804 635 q 1790 701 1790 682 q 1822 764 1790 741 q 1895 793 1860 793 q 1907 792 1901 793 q 1984 741 1948 787 q 2001 694 2001 721 q 1977 624 2001 663 q 1944 579 1964 603 q 1976 538 1959 561 z "},"៛":{"ha":393,"x_min":0,"x_max":359,"o":"m 136 271 q 81 203 81 271 q 136 102 81 102 l 136 271 m 258 468 l 258 68 q 170 0 258 0 q 49 68 85 0 q 14 203 14 136 q 136 339 14 339 l 136 468 l 31 468 l 31 549 l 136 549 l 136 653 q 0 767 136 725 q 65 926 14 836 q 153 1017 116 1017 q 231 988 182 1017 l 278 959 q 328 946 299 946 q 359 949 342 946 q 332 872 353 902 q 277 838 311 842 q 270 838 273 838 q 178 873 236 838 q 146 884 161 884 q 72 806 103 884 q 258 692 258 746 l 258 549 l 336 549 l 336 468 l 258 468 z "},"០":{"ha":983,"x_min":136,"x_max":848,"o":"m 216 127 q 176 191 216 127 q 136 407 136 254 l 136 610 q 216 890 136 763 q 492 1017 297 1017 q 767 890 687 1017 q 848 610 848 763 l 848 407 q 767 127 848 254 q 492 0 687 0 q 216 127 297 0 m 309 817 q 283 765 309 817 q 258 610 258 714 l 258 407 q 309 200 258 303 q 492 98 361 98 q 674 200 623 98 q 726 407 726 303 l 726 610 q 674 817 726 714 q 492 920 623 920 q 309 817 361 920 z "},"១":{"ha":983,"x_min":136,"x_max":848,"o":"m 848 610 q 727 158 848 315 q 373 0 606 0 q 305 49 305 0 q 373 98 305 98 q 647 228 569 98 q 726 610 726 357 q 654 858 726 795 q 479 920 583 920 q 316 861 374 920 q 258 699 258 802 q 293 571 258 614 q 395 529 329 529 q 462 576 443 529 q 407 637 407 586 q 492 726 407 726 q 576 637 576 726 q 530 492 576 545 q 395 438 482 438 q 204 512 272 438 q 136 699 136 585 q 223 924 136 831 q 479 1017 311 1017 q 747 921 646 1017 q 848 610 848 824 z "},"២":{"ha":1092,"x_min":34,"x_max":956,"o":"m 536 593 l 536 543 q 568 576 568 543 q 559 589 568 585 q 536 593 551 593 m 509 0 q 231 78 326 0 q 136 271 136 156 l 136 983 q 34 1062 136 1062 q 122 1153 34 1153 q 258 983 258 1153 l 258 271 q 323 141 258 184 q 509 98 389 98 l 583 98 q 768 141 703 98 q 834 271 834 184 l 834 814 q 805 881 834 857 q 794 884 800 884 q 686 780 761 884 q 578 884 612 884 q 567 881 572 884 q 536 814 536 857 l 536 661 q 611 640 586 661 q 636 576 636 618 q 536 475 636 475 q 414 543 414 475 l 414 814 q 488 957 414 897 q 582 1017 562 1017 q 686 899 602 1017 q 789 1017 769 1017 q 882 957 809 1017 q 956 814 956 897 l 956 271 q 861 78 956 156 q 583 0 766 0 l 509 0 z "},"៣":{"ha":1160,"x_min":136,"x_max":1024,"o":"m 258 119 l 258 68 q 290 102 290 68 q 281 115 290 110 q 258 119 273 119 m 522 780 q 390 926 522 926 q 258 780 258 926 l 258 186 q 333 165 308 186 q 358 102 358 144 q 258 0 358 0 q 136 68 136 0 l 136 780 q 390 1017 136 1017 q 587 958 524 1017 q 771 1017 651 1017 q 1024 780 1024 1017 l 1024 68 q 963 0 1024 0 q 902 68 902 0 l 902 780 q 771 926 902 926 q 644 780 644 926 l 644 68 q 583 0 644 0 q 522 68 522 0 l 522 780 z "},"៤":{"ha":983,"x_min":136,"x_max":848,"o":"m 766 475 q 773 498 773 481 q 746 533 773 519 l 746 467 q 766 475 760 467 m 136 543 q 383 850 136 776 l 575 912 q 726 1038 726 958 q 652 1085 726 1085 q 720 1153 652 1153 q 848 1038 848 1153 q 616 822 848 895 l 410 758 q 258 543 258 704 l 258 203 q 313 131 258 164 q 441 98 369 98 l 720 98 q 624 305 624 252 l 624 475 q 709 610 624 610 q 790 594 760 610 q 834 547 821 577 q 848 478 848 517 q 824 407 848 441 q 746 373 800 373 l 746 305 q 797 161 746 237 l 848 85 l 848 0 l 441 0 q 220 68 305 0 q 136 203 136 136 l 136 543 z "},"៥":{"ha":983,"x_min":136,"x_max":916,"o":"m 422 822 q 445 867 445 845 q 392 926 445 926 q 339 867 339 926 q 422 822 339 837 m 766 407 q 773 431 773 414 q 746 465 773 452 l 746 399 q 766 407 760 399 m 519 805 l 655 787 q 669 786 662 786 q 726 882 726 786 l 726 1038 q 834 1153 726 1153 q 916 1085 916 1153 q 848 1038 848 1085 l 848 882 q 695 678 848 678 l 433 722 q 387 695 412 709 q 258 481 258 648 l 258 203 q 313 131 258 164 q 441 98 369 98 l 720 98 q 624 271 624 218 l 624 407 q 709 543 624 543 q 790 526 760 543 q 834 479 821 509 q 848 410 848 449 q 824 339 848 373 q 746 305 800 305 l 746 271 q 848 85 746 203 l 848 0 l 441 0 q 220 68 305 0 q 136 203 136 136 l 136 481 q 316 758 136 671 q 248 867 248 795 q 392 1017 248 1017 q 536 867 536 1017 q 519 805 536 835 z "},"៦":{"ha":983,"x_min":34,"x_max":848,"o":"m 258 926 q 496 1017 351 1017 q 757 910 667 1017 q 848 543 848 804 l 848 407 q 757 107 848 214 q 492 0 667 0 q 216 96 297 0 q 136 319 136 193 q 197 482 136 422 q 368 543 245 543 q 499 503 455 543 q 543 370 543 463 q 475 302 543 302 q 407 370 407 302 q 428 425 407 408 q 368 452 409 452 q 258 319 258 452 q 309 160 258 222 q 492 98 361 98 q 664 170 603 98 q 726 407 726 242 l 726 543 q 664 847 726 775 q 496 920 603 920 q 258 746 340 920 q 193 678 258 678 q 136 746 136 678 l 136 1017 q 34 1096 136 1096 q 122 1187 34 1187 q 258 1017 258 1187 l 258 926 z "},"៧":{"ha":1139,"x_min":136,"x_max":1004,"o":"m 258 151 q 324 264 324 212 q 306 304 324 291 q 258 316 288 316 l 258 151 m 780 136 q 831 98 780 98 q 882 136 882 98 l 882 983 q 780 1062 882 1062 q 868 1153 780 1153 q 1004 983 1004 1153 l 1004 136 q 831 0 1004 0 q 658 136 658 0 l 658 814 q 605 893 658 857 q 577 901 592 901 q 458 813 530 901 q 339 901 387 901 q 311 893 324 901 q 258 814 258 857 l 258 407 q 386 367 356 407 q 415 281 415 326 q 388 170 415 229 q 309 55 361 110 q 220 0 258 0 q 136 68 136 0 l 136 814 q 214 957 136 897 q 336 1017 293 1017 q 458 926 371 1017 q 581 1017 545 1017 q 701 957 623 1017 q 780 814 780 897 l 780 136 z "},"៨":{"ha":983,"x_min":136,"x_max":949,"o":"m 726 399 l 726 465 q 685 431 685 452 q 692 407 685 414 q 726 399 699 399 m 136 678 q 216 920 136 824 q 481 1017 296 1017 q 726 926 632 1017 l 726 1017 q 861 1187 726 1187 q 949 1096 949 1187 q 848 1017 848 1096 l 848 780 q 784 712 848 712 q 720 746 735 712 q 481 920 643 920 q 309 858 360 920 q 258 678 258 795 l 258 203 q 323 125 258 160 q 354 117 338 117 q 492 218 412 117 q 631 117 573 117 q 661 125 646 117 q 726 203 726 160 l 726 305 q 634 339 658 305 q 610 410 610 373 q 624 479 610 449 q 668 526 637 509 q 757 543 699 543 q 848 407 848 543 l 848 203 q 761 60 848 121 q 628 0 675 0 q 492 98 589 0 q 357 0 396 0 q 222 60 309 0 q 136 203 136 121 l 136 678 z "},"៩":{"ha":983,"x_min":136,"x_max":848,"o":"m 681 161 l 733 197 q 710 213 723 213 q 700 211 705 213 q 680 196 684 205 q 678 184 678 192 q 681 161 678 175 m 620 127 q 597 199 597 170 q 603 225 597 214 q 654 273 619 260 q 717 286 686 286 l 723 286 q 785 262 755 285 q 814 169 814 239 q 715 49 814 98 q 475 0 615 0 q 227 71 307 0 q 136 305 136 150 q 186 496 136 420 q 338 608 237 572 q 271 780 271 667 q 341 966 271 907 q 528 1017 401 1017 q 726 926 632 1017 l 726 1017 q 618 1096 726 1096 q 707 1187 618 1187 q 848 1017 848 1187 l 848 814 q 784 746 848 746 q 720 780 735 746 q 528 926 623 926 q 431 894 469 926 q 393 783 393 862 q 437 676 393 712 q 563 640 481 640 q 810 547 694 640 q 848 453 848 514 q 832 425 848 425 q 770 467 812 425 q 563 543 692 543 q 335 483 413 543 q 258 305 258 424 q 314 148 258 199 q 475 98 370 98 q 620 127 547 98 z "},"​":{"ha":0,"x_min":0,"x_max":0,"o":""},"◌":{"ha":882,"x_min":203,"x_max":746,"o":"m 647 170 q 680 141 680 170 q 649 114 680 114 l 647 114 q 614 142 614 115 q 647 170 614 170 m 693 275 q 727 247 727 275 q 693 219 727 219 q 660 247 660 220 q 693 275 660 275 m 566 77 q 600 49 600 77 q 566 21 600 21 q 533 50 533 22 q 566 77 533 77 m 418 56 q 452 28 452 56 q 420 1 452 1 l 418 1 q 385 28 385 1 q 418 56 385 56 m 320 140 q 354 111 354 140 q 322 84 354 84 l 320 84 q 287 112 287 85 q 320 140 287 140 m 265 244 q 299 216 299 244 q 267 189 299 189 l 265 189 q 232 216 232 189 q 265 244 232 244 m 239 353 q 273 325 273 353 q 241 298 273 298 l 239 298 q 206 326 206 298 q 239 353 206 353 m 237 463 q 271 435 271 463 q 239 408 271 408 l 237 408 q 203 435 203 408 q 237 463 203 463 m 253 573 q 287 545 287 573 q 255 517 287 517 l 253 517 q 220 545 220 518 q 253 573 220 573 m 296 680 q 329 652 329 680 q 296 624 329 624 q 262 652 262 625 q 296 680 262 680 m 374 777 q 407 748 407 777 q 376 721 407 721 l 374 721 q 340 749 340 722 q 374 777 340 777 m 500 812 q 534 783 534 812 q 503 756 534 756 l 500 756 q 467 784 467 757 q 500 812 467 812 m 611 741 q 645 713 645 741 q 613 686 645 686 l 611 686 q 578 713 578 686 q 611 741 578 741 m 678 628 q 712 600 712 628 q 680 572 712 572 l 678 572 q 645 600 645 573 q 678 628 645 628 m 707 519 q 741 491 741 519 q 707 463 741 463 q 673 492 673 464 q 707 519 673 519 m 712 393 q 746 364 746 393 q 714 337 746 337 l 712 337 q 679 365 679 338 q 712 393 679 393 z "}}}
